<?xml version="1.0" encoding="utf-8" standalone="no"?>
<!DOCTYPE svg PUBLIC "-//W3C//DTD SVG 1.1//EN"
  "http://www.w3.org/Graphics/SVG/1.1/DTD/svg11.dtd">
<!-- Created with matplotlib (http://matplotlib.org/) -->
<svg height="345pt" version="1.1" viewBox="0 0 460 345" width="460pt" xmlns="http://www.w3.org/2000/svg" xmlns:xlink="http://www.w3.org/1999/xlink">
 <defs>
  <style type="text/css">
*{stroke-linecap:butt;stroke-linejoin:round;}
  </style>
 </defs>
 <g id="figure_1">
  <g id="patch_1">
   <path d="M 0 345.6 
L 460.8 345.6 
L 460.8 0 
L 0 0 
z
" style="fill:#ffffff;"/>
  </g>
  <g id="axes_1">
   <g id="patch_2">
    <path d="M 57.6 307.584 
L 414.72 307.584 
L 414.72 41.472 
L 57.6 41.472 
z
" style="fill:#ffffff;"/>
   </g>
   <g id="PathCollection_1">
    <defs>
     <path d="M 0 3 
C 0.795609 3 1.55874 2.683901 2.12132 2.12132 
C 2.683901 1.55874 3 0.795609 3 0 
C 3 -0.795609 2.683901 -1.55874 2.12132 -2.12132 
C 1.55874 -2.683901 0.795609 -3 0 -3 
C -0.795609 -3 -1.55874 -2.683901 -2.12132 -2.12132 
C -2.683901 -1.55874 -3 -0.795609 -3 0 
C -3 0.795609 -2.683901 1.55874 -2.12132 2.12132 
C -1.55874 2.683901 -0.795609 3 0 3 
z
" id="m6f8e850c79" style="stroke:#1f77b4;"/>
    </defs>
    <g clip-path="url(#p64e57d5be3)">
     <use style="fill:#1f77b4;stroke:#1f77b4;" x="73.852361" xlink:href="#m6f8e850c79" y="295.44874"/>
     <use style="fill:#1f77b4;stroke:#1f77b4;" x="77.098514" xlink:href="#m6f8e850c79" y="290.61191"/>
     <use style="fill:#1f77b4;stroke:#1f77b4;" x="80.344667" xlink:href="#m6f8e850c79" y="285.775081"/>
     <use style="fill:#1f77b4;stroke:#1f77b4;" x="83.59082" xlink:href="#m6f8e850c79" y="280.938251"/>
     <use style="fill:#1f77b4;stroke:#1f77b4;" x="86.836972" xlink:href="#m6f8e850c79" y="276.101422"/>
     <use style="fill:#1f77b4;stroke:#1f77b4;" x="90.083125" xlink:href="#m6f8e850c79" y="271.264592"/>
     <use style="fill:#1f77b4;stroke:#1f77b4;" x="93.329278" xlink:href="#m6f8e850c79" y="266.427762"/>
     <use style="fill:#1f77b4;stroke:#1f77b4;" x="96.575431" xlink:href="#m6f8e850c79" y="261.590933"/>
     <use style="fill:#1f77b4;stroke:#1f77b4;" x="99.821583" xlink:href="#m6f8e850c79" y="256.754103"/>
     <use style="fill:#1f77b4;stroke:#1f77b4;" x="103.067736" xlink:href="#m6f8e850c79" y="251.917274"/>
     <use style="fill:#1f77b4;stroke:#1f77b4;" x="106.313889" xlink:href="#m6f8e850c79" y="247.080444"/>
     <use style="fill:#1f77b4;stroke:#1f77b4;" x="109.560042" xlink:href="#m6f8e850c79" y="242.243614"/>
     <use style="fill:#1f77b4;stroke:#1f77b4;" x="112.806195" xlink:href="#m6f8e850c79" y="237.406785"/>
     <use style="fill:#1f77b4;stroke:#1f77b4;" x="116.052347" xlink:href="#m6f8e850c79" y="237.406785"/>
     <use style="fill:#1f77b4;stroke:#1f77b4;" x="119.2985" xlink:href="#m6f8e850c79" y="242.243614"/>
     <use style="fill:#1f77b4;stroke:#1f77b4;" x="122.544653" xlink:href="#m6f8e850c79" y="247.080444"/>
     <use style="fill:#1f77b4;stroke:#1f77b4;" x="125.790806" xlink:href="#m6f8e850c79" y="218.059466"/>
     <use style="fill:#1f77b4;stroke:#1f77b4;" x="129.036958" xlink:href="#m6f8e850c79" y="256.754103"/>
     <use style="fill:#1f77b4;stroke:#1f77b4;" x="132.283111" xlink:href="#m6f8e850c79" y="261.590933"/>
     <use style="fill:#1f77b4;stroke:#1f77b4;" x="135.529264" xlink:href="#m6f8e850c79" y="266.427762"/>
     <use style="fill:#1f77b4;stroke:#1f77b4;" x="138.775417" xlink:href="#m6f8e850c79" y="271.264592"/>
     <use style="fill:#1f77b4;stroke:#1f77b4;" x="142.02157" xlink:href="#m6f8e850c79" y="276.101422"/>
     <use style="fill:#1f77b4;stroke:#1f77b4;" x="145.267722" xlink:href="#m6f8e850c79" y="280.938251"/>
     <use style="fill:#1f77b4;stroke:#1f77b4;" x="148.513875" xlink:href="#m6f8e850c79" y="285.775081"/>
     <use style="fill:#1f77b4;stroke:#1f77b4;" x="151.760028" xlink:href="#m6f8e850c79" y="290.61191"/>
     <use style="fill:#1f77b4;stroke:#1f77b4;" x="155.006181" xlink:href="#m6f8e850c79" y="174.528"/>
     <use style="fill:#1f77b4;stroke:#1f77b4;" x="158.252333" xlink:href="#m6f8e850c79" y="290.61191"/>
     <use style="fill:#1f77b4;stroke:#1f77b4;" x="161.498486" xlink:href="#m6f8e850c79" y="285.775081"/>
     <use style="fill:#1f77b4;stroke:#1f77b4;" x="164.744639" xlink:href="#m6f8e850c79" y="280.938251"/>
     <use style="fill:#1f77b4;stroke:#1f77b4;" x="167.990792" xlink:href="#m6f8e850c79" y="276.101422"/>
     <use style="fill:#1f77b4;stroke:#1f77b4;" x="171.236945" xlink:href="#m6f8e850c79" y="271.264592"/>
     <use style="fill:#1f77b4;stroke:#1f77b4;" x="174.483097" xlink:href="#m6f8e850c79" y="266.427762"/>
     <use style="fill:#1f77b4;stroke:#1f77b4;" x="177.72925" xlink:href="#m6f8e850c79" y="261.590933"/>
     <use style="fill:#1f77b4;stroke:#1f77b4;" x="180.975403" xlink:href="#m6f8e850c79" y="135.833363"/>
     <use style="fill:#1f77b4;stroke:#1f77b4;" x="184.221556" xlink:href="#m6f8e850c79" y="251.917274"/>
     <use style="fill:#1f77b4;stroke:#1f77b4;" x="187.467708" xlink:href="#m6f8e850c79" y="247.080444"/>
     <use style="fill:#1f77b4;stroke:#1f77b4;" x="190.713861" xlink:href="#m6f8e850c79" y="242.243614"/>
     <use style="fill:#1f77b4;stroke:#1f77b4;" x="193.960014" xlink:href="#m6f8e850c79" y="237.406785"/>
     <use style="fill:#1f77b4;stroke:#1f77b4;" x="197.206167" xlink:href="#m6f8e850c79" y="237.406785"/>
     <use style="fill:#1f77b4;stroke:#1f77b4;" x="200.452319" xlink:href="#m6f8e850c79" y="242.243614"/>
     <use style="fill:#1f77b4;stroke:#1f77b4;" x="203.698472" xlink:href="#m6f8e850c79" y="247.080444"/>
     <use style="fill:#1f77b4;stroke:#1f77b4;" x="206.944625" xlink:href="#m6f8e850c79" y="251.917274"/>
     <use style="fill:#1f77b4;stroke:#1f77b4;" x="210.190778" xlink:href="#m6f8e850c79" y="256.754103"/>
     <use style="fill:#1f77b4;stroke:#1f77b4;" x="213.436931" xlink:href="#m6f8e850c79" y="261.590933"/>
     <use style="fill:#1f77b4;stroke:#1f77b4;" x="216.683083" xlink:href="#m6f8e850c79" y="266.427762"/>
     <use style="fill:#1f77b4;stroke:#1f77b4;" x="219.929236" xlink:href="#m6f8e850c79" y="271.264592"/>
     <use style="fill:#1f77b4;stroke:#1f77b4;" x="223.175389" xlink:href="#m6f8e850c79" y="276.101422"/>
     <use style="fill:#1f77b4;stroke:#1f77b4;" x="226.421542" xlink:href="#m6f8e850c79" y="280.938251"/>
     <use style="fill:#1f77b4;stroke:#1f77b4;" x="229.667694" xlink:href="#m6f8e850c79" y="285.775081"/>
     <use style="fill:#1f77b4;stroke:#1f77b4;" x="232.913847" xlink:href="#m6f8e850c79" y="290.61191"/>
     <use style="fill:#1f77b4;stroke:#1f77b4;" x="236.16" xlink:href="#m6f8e850c79" y="53.60726"/>
     <use style="fill:#1f77b4;stroke:#1f77b4;" x="239.406153" xlink:href="#m6f8e850c79" y="290.61191"/>
     <use style="fill:#1f77b4;stroke:#1f77b4;" x="242.652306" xlink:href="#m6f8e850c79" y="285.775081"/>
     <use style="fill:#1f77b4;stroke:#1f77b4;" x="245.898458" xlink:href="#m6f8e850c79" y="280.938251"/>
     <use style="fill:#1f77b4;stroke:#1f77b4;" x="249.144611" xlink:href="#m6f8e850c79" y="276.101422"/>
     <use style="fill:#1f77b4;stroke:#1f77b4;" x="252.390764" xlink:href="#m6f8e850c79" y="271.264592"/>
     <use style="fill:#1f77b4;stroke:#1f77b4;" x="255.636917" xlink:href="#m6f8e850c79" y="266.427762"/>
     <use style="fill:#1f77b4;stroke:#1f77b4;" x="258.883069" xlink:href="#m6f8e850c79" y="261.590933"/>
     <use style="fill:#1f77b4;stroke:#1f77b4;" x="262.129222" xlink:href="#m6f8e850c79" y="256.754103"/>
     <use style="fill:#1f77b4;stroke:#1f77b4;" x="265.375375" xlink:href="#m6f8e850c79" y="251.917274"/>
     <use style="fill:#1f77b4;stroke:#1f77b4;" x="268.621528" xlink:href="#m6f8e850c79" y="247.080444"/>
     <use style="fill:#1f77b4;stroke:#1f77b4;" x="271.867681" xlink:href="#m6f8e850c79" y="242.243614"/>
     <use style="fill:#1f77b4;stroke:#1f77b4;" x="275.113833" xlink:href="#m6f8e850c79" y="237.406785"/>
     <use style="fill:#1f77b4;stroke:#1f77b4;" x="278.359986" xlink:href="#m6f8e850c79" y="237.406785"/>
     <use style="fill:#1f77b4;stroke:#1f77b4;" x="281.606139" xlink:href="#m6f8e850c79" y="242.243614"/>
     <use style="fill:#1f77b4;stroke:#1f77b4;" x="284.852292" xlink:href="#m6f8e850c79" y="247.080444"/>
     <use style="fill:#1f77b4;stroke:#1f77b4;" x="288.098444" xlink:href="#m6f8e850c79" y="251.917274"/>
     <use style="fill:#1f77b4;stroke:#1f77b4;" x="291.344597" xlink:href="#m6f8e850c79" y="256.754103"/>
     <use style="fill:#1f77b4;stroke:#1f77b4;" x="294.59075" xlink:href="#m6f8e850c79" y="261.590933"/>
     <use style="fill:#1f77b4;stroke:#1f77b4;" x="297.836903" xlink:href="#m6f8e850c79" y="266.427762"/>
     <use style="fill:#1f77b4;stroke:#1f77b4;" x="301.083055" xlink:href="#m6f8e850c79" y="271.264592"/>
     <use style="fill:#1f77b4;stroke:#1f77b4;" x="304.329208" xlink:href="#m6f8e850c79" y="276.101422"/>
     <use style="fill:#1f77b4;stroke:#1f77b4;" x="307.575361" xlink:href="#m6f8e850c79" y="280.938251"/>
     <use style="fill:#1f77b4;stroke:#1f77b4;" x="310.821514" xlink:href="#m6f8e850c79" y="285.775081"/>
     <use style="fill:#1f77b4;stroke:#1f77b4;" x="314.067667" xlink:href="#m6f8e850c79" y="290.61191"/>
     <use style="fill:#1f77b4;stroke:#1f77b4;" x="317.313819" xlink:href="#m6f8e850c79" y="174.528"/>
     <use style="fill:#1f77b4;stroke:#1f77b4;" x="320.559972" xlink:href="#m6f8e850c79" y="290.61191"/>
     <use style="fill:#1f77b4;stroke:#1f77b4;" x="323.806125" xlink:href="#m6f8e850c79" y="285.775081"/>
     <use style="fill:#1f77b4;stroke:#1f77b4;" x="327.052278" xlink:href="#m6f8e850c79" y="280.938251"/>
     <use style="fill:#1f77b4;stroke:#1f77b4;" x="330.29843" xlink:href="#m6f8e850c79" y="276.101422"/>
     <use style="fill:#1f77b4;stroke:#1f77b4;" x="333.544583" xlink:href="#m6f8e850c79" y="271.264592"/>
     <use style="fill:#1f77b4;stroke:#1f77b4;" x="336.790736" xlink:href="#m6f8e850c79" y="266.427762"/>
     <use style="fill:#1f77b4;stroke:#1f77b4;" x="340.036889" xlink:href="#m6f8e850c79" y="261.590933"/>
     <use style="fill:#1f77b4;stroke:#1f77b4;" x="343.283042" xlink:href="#m6f8e850c79" y="213.222637"/>
     <use style="fill:#1f77b4;stroke:#1f77b4;" x="346.529194" xlink:href="#m6f8e850c79" y="251.917274"/>
     <use style="fill:#1f77b4;stroke:#1f77b4;" x="349.775347" xlink:href="#m6f8e850c79" y="247.080444"/>
     <use style="fill:#1f77b4;stroke:#1f77b4;" x="353.0215" xlink:href="#m6f8e850c79" y="242.243614"/>
     <use style="fill:#1f77b4;stroke:#1f77b4;" x="356.267653" xlink:href="#m6f8e850c79" y="237.406785"/>
     <use style="fill:#1f77b4;stroke:#1f77b4;" x="359.513805" xlink:href="#m6f8e850c79" y="237.406785"/>
     <use style="fill:#1f77b4;stroke:#1f77b4;" x="362.759958" xlink:href="#m6f8e850c79" y="242.243614"/>
     <use style="fill:#1f77b4;stroke:#1f77b4;" x="366.006111" xlink:href="#m6f8e850c79" y="247.080444"/>
     <use style="fill:#1f77b4;stroke:#1f77b4;" x="369.252264" xlink:href="#m6f8e850c79" y="251.917274"/>
     <use style="fill:#1f77b4;stroke:#1f77b4;" x="372.498417" xlink:href="#m6f8e850c79" y="256.754103"/>
     <use style="fill:#1f77b4;stroke:#1f77b4;" x="375.744569" xlink:href="#m6f8e850c79" y="261.590933"/>
     <use style="fill:#1f77b4;stroke:#1f77b4;" x="378.990722" xlink:href="#m6f8e850c79" y="266.427762"/>
     <use style="fill:#1f77b4;stroke:#1f77b4;" x="382.236875" xlink:href="#m6f8e850c79" y="271.264592"/>
     <use style="fill:#1f77b4;stroke:#1f77b4;" x="385.483028" xlink:href="#m6f8e850c79" y="276.101422"/>
     <use style="fill:#1f77b4;stroke:#1f77b4;" x="388.72918" xlink:href="#m6f8e850c79" y="280.938251"/>
     <use style="fill:#1f77b4;stroke:#1f77b4;" x="391.975333" xlink:href="#m6f8e850c79" y="285.775081"/>
     <use style="fill:#1f77b4;stroke:#1f77b4;" x="395.221486" xlink:href="#m6f8e850c79" y="290.61191"/>
     <use style="fill:#1f77b4;stroke:#1f77b4;" x="398.467639" xlink:href="#m6f8e850c79" y="295.44874"/>
    </g>
   </g>
   <g id="matplotlib.axis_1">
    <g id="xtick_1">
     <g id="line2d_1">
      <defs>
       <path d="M 0 0 
L 0 3.5 
" id="mea266b5465" style="stroke:#000000;stroke-width:0.8;"/>
      </defs>
      <g>
       <use style="stroke:#000000;stroke-width:0.8;" x="73.852361" xlink:href="#mea266b5465" y="307.584"/>
      </g>
     </g>
     <g id="text_1">
      <!-- 0 -->
      <defs>
       <path d="M 31.78125 66.40625 
Q 24.171875 66.40625 20.328125 58.90625 
Q 16.5 51.421875 16.5 36.375 
Q 16.5 21.390625 20.328125 13.890625 
Q 24.171875 6.390625 31.78125 6.390625 
Q 39.453125 6.390625 43.28125 13.890625 
Q 47.125 21.390625 47.125 36.375 
Q 47.125 51.421875 43.28125 58.90625 
Q 39.453125 66.40625 31.78125 66.40625 
z
M 31.78125 74.21875 
Q 44.046875 74.21875 50.515625 64.515625 
Q 56.984375 54.828125 56.984375 36.375 
Q 56.984375 17.96875 50.515625 8.265625 
Q 44.046875 -1.421875 31.78125 -1.421875 
Q 19.53125 -1.421875 13.0625 8.265625 
Q 6.59375 17.96875 6.59375 36.375 
Q 6.59375 54.828125 13.0625 64.515625 
Q 19.53125 74.21875 31.78125 74.21875 
z
" id="DejaVuSans-30"/>
      </defs>
      <g transform="translate(70.671111 322.182437)scale(0.1 -0.1)">
       <use xlink:href="#DejaVuSans-30"/>
      </g>
     </g>
    </g>
    <g id="xtick_2">
     <g id="line2d_2">
      <g>
       <use style="stroke:#000000;stroke-width:0.8;" x="138.775417" xlink:href="#mea266b5465" y="307.584"/>
      </g>
     </g>
     <g id="text_2">
      <!-- 20 -->
      <defs>
       <path d="M 19.1875 8.296875 
L 53.609375 8.296875 
L 53.609375 0 
L 7.328125 0 
L 7.328125 8.296875 
Q 12.9375 14.109375 22.625 23.890625 
Q 32.328125 33.6875 34.8125 36.53125 
Q 39.546875 41.84375 41.421875 45.53125 
Q 43.3125 49.21875 43.3125 52.78125 
Q 43.3125 58.59375 39.234375 62.25 
Q 35.15625 65.921875 28.609375 65.921875 
Q 23.96875 65.921875 18.8125 64.3125 
Q 13.671875 62.703125 7.8125 59.421875 
L 7.8125 69.390625 
Q 13.765625 71.78125 18.9375 73 
Q 24.125 74.21875 28.421875 74.21875 
Q 39.75 74.21875 46.484375 68.546875 
Q 53.21875 62.890625 53.21875 53.421875 
Q 53.21875 48.921875 51.53125 44.890625 
Q 49.859375 40.875 45.40625 35.40625 
Q 44.1875 33.984375 37.640625 27.21875 
Q 31.109375 20.453125 19.1875 8.296875 
z
" id="DejaVuSans-32"/>
      </defs>
      <g transform="translate(132.412917 322.182437)scale(0.1 -0.1)">
       <use xlink:href="#DejaVuSans-32"/>
       <use x="63.623047" xlink:href="#DejaVuSans-30"/>
      </g>
     </g>
    </g>
    <g id="xtick_3">
     <g id="line2d_3">
      <g>
       <use style="stroke:#000000;stroke-width:0.8;" x="203.698472" xlink:href="#mea266b5465" y="307.584"/>
      </g>
     </g>
     <g id="text_3">
      <!-- 40 -->
      <defs>
       <path d="M 37.796875 64.3125 
L 12.890625 25.390625 
L 37.796875 25.390625 
z
M 35.203125 72.90625 
L 47.609375 72.90625 
L 47.609375 25.390625 
L 58.015625 25.390625 
L 58.015625 17.1875 
L 47.609375 17.1875 
L 47.609375 0 
L 37.796875 0 
L 37.796875 17.1875 
L 4.890625 17.1875 
L 4.890625 26.703125 
z
" id="DejaVuSans-34"/>
      </defs>
      <g transform="translate(197.335972 322.182437)scale(0.1 -0.1)">
       <use xlink:href="#DejaVuSans-34"/>
       <use x="63.623047" xlink:href="#DejaVuSans-30"/>
      </g>
     </g>
    </g>
    <g id="xtick_4">
     <g id="line2d_4">
      <g>
       <use style="stroke:#000000;stroke-width:0.8;" x="268.621528" xlink:href="#mea266b5465" y="307.584"/>
      </g>
     </g>
     <g id="text_4">
      <!-- 60 -->
      <defs>
       <path d="M 33.015625 40.375 
Q 26.375 40.375 22.484375 35.828125 
Q 18.609375 31.296875 18.609375 23.390625 
Q 18.609375 15.53125 22.484375 10.953125 
Q 26.375 6.390625 33.015625 6.390625 
Q 39.65625 6.390625 43.53125 10.953125 
Q 47.40625 15.53125 47.40625 23.390625 
Q 47.40625 31.296875 43.53125 35.828125 
Q 39.65625 40.375 33.015625 40.375 
z
M 52.59375 71.296875 
L 52.59375 62.3125 
Q 48.875 64.0625 45.09375 64.984375 
Q 41.3125 65.921875 37.59375 65.921875 
Q 27.828125 65.921875 22.671875 59.328125 
Q 17.53125 52.734375 16.796875 39.40625 
Q 19.671875 43.65625 24.015625 45.921875 
Q 28.375 48.1875 33.59375 48.1875 
Q 44.578125 48.1875 50.953125 41.515625 
Q 57.328125 34.859375 57.328125 23.390625 
Q 57.328125 12.15625 50.6875 5.359375 
Q 44.046875 -1.421875 33.015625 -1.421875 
Q 20.359375 -1.421875 13.671875 8.265625 
Q 6.984375 17.96875 6.984375 36.375 
Q 6.984375 53.65625 15.1875 63.9375 
Q 23.390625 74.21875 37.203125 74.21875 
Q 40.921875 74.21875 44.703125 73.484375 
Q 48.484375 72.75 52.59375 71.296875 
z
" id="DejaVuSans-36"/>
      </defs>
      <g transform="translate(262.259028 322.182437)scale(0.1 -0.1)">
       <use xlink:href="#DejaVuSans-36"/>
       <use x="63.623047" xlink:href="#DejaVuSans-30"/>
      </g>
     </g>
    </g>
    <g id="xtick_5">
     <g id="line2d_5">
      <g>
       <use style="stroke:#000000;stroke-width:0.8;" x="333.544583" xlink:href="#mea266b5465" y="307.584"/>
      </g>
     </g>
     <g id="text_5">
      <!-- 80 -->
      <defs>
       <path d="M 31.78125 34.625 
Q 24.75 34.625 20.71875 30.859375 
Q 16.703125 27.09375 16.703125 20.515625 
Q 16.703125 13.921875 20.71875 10.15625 
Q 24.75 6.390625 31.78125 6.390625 
Q 38.8125 6.390625 42.859375 10.171875 
Q 46.921875 13.96875 46.921875 20.515625 
Q 46.921875 27.09375 42.890625 30.859375 
Q 38.875 34.625 31.78125 34.625 
z
M 21.921875 38.8125 
Q 15.578125 40.375 12.03125 44.71875 
Q 8.5 49.078125 8.5 55.328125 
Q 8.5 64.0625 14.71875 69.140625 
Q 20.953125 74.21875 31.78125 74.21875 
Q 42.671875 74.21875 48.875 69.140625 
Q 55.078125 64.0625 55.078125 55.328125 
Q 55.078125 49.078125 51.53125 44.71875 
Q 48 40.375 41.703125 38.8125 
Q 48.828125 37.15625 52.796875 32.3125 
Q 56.78125 27.484375 56.78125 20.515625 
Q 56.78125 9.90625 50.3125 4.234375 
Q 43.84375 -1.421875 31.78125 -1.421875 
Q 19.734375 -1.421875 13.25 4.234375 
Q 6.78125 9.90625 6.78125 20.515625 
Q 6.78125 27.484375 10.78125 32.3125 
Q 14.796875 37.15625 21.921875 38.8125 
z
M 18.3125 54.390625 
Q 18.3125 48.734375 21.84375 45.5625 
Q 25.390625 42.390625 31.78125 42.390625 
Q 38.140625 42.390625 41.71875 45.5625 
Q 45.3125 48.734375 45.3125 54.390625 
Q 45.3125 60.0625 41.71875 63.234375 
Q 38.140625 66.40625 31.78125 66.40625 
Q 25.390625 66.40625 21.84375 63.234375 
Q 18.3125 60.0625 18.3125 54.390625 
z
" id="DejaVuSans-38"/>
      </defs>
      <g transform="translate(327.182083 322.182437)scale(0.1 -0.1)">
       <use xlink:href="#DejaVuSans-38"/>
       <use x="63.623047" xlink:href="#DejaVuSans-30"/>
      </g>
     </g>
    </g>
    <g id="xtick_6">
     <g id="line2d_6">
      <g>
       <use style="stroke:#000000;stroke-width:0.8;" x="398.467639" xlink:href="#mea266b5465" y="307.584"/>
      </g>
     </g>
     <g id="text_6">
      <!-- 100 -->
      <defs>
       <path d="M 12.40625 8.296875 
L 28.515625 8.296875 
L 28.515625 63.921875 
L 10.984375 60.40625 
L 10.984375 69.390625 
L 28.421875 72.90625 
L 38.28125 72.90625 
L 38.28125 8.296875 
L 54.390625 8.296875 
L 54.390625 0 
L 12.40625 0 
z
" id="DejaVuSans-31"/>
      </defs>
      <g transform="translate(388.923889 322.182437)scale(0.1 -0.1)">
       <use xlink:href="#DejaVuSans-31"/>
       <use x="63.623047" xlink:href="#DejaVuSans-30"/>
       <use x="127.246094" xlink:href="#DejaVuSans-30"/>
      </g>
     </g>
    </g>
    <g id="text_7">
     <!-- Capital -->
     <defs>
      <path d="M 64.40625 67.28125 
L 64.40625 56.890625 
Q 59.421875 61.53125 53.78125 63.8125 
Q 48.140625 66.109375 41.796875 66.109375 
Q 29.296875 66.109375 22.65625 58.46875 
Q 16.015625 50.828125 16.015625 36.375 
Q 16.015625 21.96875 22.65625 14.328125 
Q 29.296875 6.6875 41.796875 6.6875 
Q 48.140625 6.6875 53.78125 8.984375 
Q 59.421875 11.28125 64.40625 15.921875 
L 64.40625 5.609375 
Q 59.234375 2.09375 53.4375 0.328125 
Q 47.65625 -1.421875 41.21875 -1.421875 
Q 24.65625 -1.421875 15.125 8.703125 
Q 5.609375 18.84375 5.609375 36.375 
Q 5.609375 53.953125 15.125 64.078125 
Q 24.65625 74.21875 41.21875 74.21875 
Q 47.75 74.21875 53.53125 72.484375 
Q 59.328125 70.75 64.40625 67.28125 
z
" id="DejaVuSans-43"/>
      <path d="M 34.28125 27.484375 
Q 23.390625 27.484375 19.1875 25 
Q 14.984375 22.515625 14.984375 16.5 
Q 14.984375 11.71875 18.140625 8.90625 
Q 21.296875 6.109375 26.703125 6.109375 
Q 34.1875 6.109375 38.703125 11.40625 
Q 43.21875 16.703125 43.21875 25.484375 
L 43.21875 27.484375 
z
M 52.203125 31.203125 
L 52.203125 0 
L 43.21875 0 
L 43.21875 8.296875 
Q 40.140625 3.328125 35.546875 0.953125 
Q 30.953125 -1.421875 24.3125 -1.421875 
Q 15.921875 -1.421875 10.953125 3.296875 
Q 6 8.015625 6 15.921875 
Q 6 25.140625 12.171875 29.828125 
Q 18.359375 34.515625 30.609375 34.515625 
L 43.21875 34.515625 
L 43.21875 35.40625 
Q 43.21875 41.609375 39.140625 45 
Q 35.0625 48.390625 27.6875 48.390625 
Q 23 48.390625 18.546875 47.265625 
Q 14.109375 46.140625 10.015625 43.890625 
L 10.015625 52.203125 
Q 14.9375 54.109375 19.578125 55.046875 
Q 24.21875 56 28.609375 56 
Q 40.484375 56 46.34375 49.84375 
Q 52.203125 43.703125 52.203125 31.203125 
z
" id="DejaVuSans-61"/>
      <path d="M 18.109375 8.203125 
L 18.109375 -20.796875 
L 9.078125 -20.796875 
L 9.078125 54.6875 
L 18.109375 54.6875 
L 18.109375 46.390625 
Q 20.953125 51.265625 25.265625 53.625 
Q 29.59375 56 35.59375 56 
Q 45.5625 56 51.78125 48.09375 
Q 58.015625 40.1875 58.015625 27.296875 
Q 58.015625 14.40625 51.78125 6.484375 
Q 45.5625 -1.421875 35.59375 -1.421875 
Q 29.59375 -1.421875 25.265625 0.953125 
Q 20.953125 3.328125 18.109375 8.203125 
z
M 48.6875 27.296875 
Q 48.6875 37.203125 44.609375 42.84375 
Q 40.53125 48.484375 33.40625 48.484375 
Q 26.265625 48.484375 22.1875 42.84375 
Q 18.109375 37.203125 18.109375 27.296875 
Q 18.109375 17.390625 22.1875 11.75 
Q 26.265625 6.109375 33.40625 6.109375 
Q 40.53125 6.109375 44.609375 11.75 
Q 48.6875 17.390625 48.6875 27.296875 
z
" id="DejaVuSans-70"/>
      <path d="M 9.421875 54.6875 
L 18.40625 54.6875 
L 18.40625 0 
L 9.421875 0 
z
M 9.421875 75.984375 
L 18.40625 75.984375 
L 18.40625 64.59375 
L 9.421875 64.59375 
z
" id="DejaVuSans-69"/>
      <path d="M 18.3125 70.21875 
L 18.3125 54.6875 
L 36.8125 54.6875 
L 36.8125 47.703125 
L 18.3125 47.703125 
L 18.3125 18.015625 
Q 18.3125 11.328125 20.140625 9.421875 
Q 21.96875 7.515625 27.59375 7.515625 
L 36.8125 7.515625 
L 36.8125 0 
L 27.59375 0 
Q 17.1875 0 13.234375 3.875 
Q 9.28125 7.765625 9.28125 18.015625 
L 9.28125 47.703125 
L 2.6875 47.703125 
L 2.6875 54.6875 
L 9.28125 54.6875 
L 9.28125 70.21875 
z
" id="DejaVuSans-74"/>
      <path d="M 9.421875 75.984375 
L 18.40625 75.984375 
L 18.40625 0 
L 9.421875 0 
z
" id="DejaVuSans-6c"/>
     </defs>
     <g transform="translate(218.627969 335.860562)scale(0.1 -0.1)">
      <use xlink:href="#DejaVuSans-43"/>
      <use x="69.824219" xlink:href="#DejaVuSans-61"/>
      <use x="131.103516" xlink:href="#DejaVuSans-70"/>
      <use x="194.580078" xlink:href="#DejaVuSans-69"/>
      <use x="222.363281" xlink:href="#DejaVuSans-74"/>
      <use x="261.572266" xlink:href="#DejaVuSans-61"/>
      <use x="322.851562" xlink:href="#DejaVuSans-6c"/>
     </g>
    </g>
   </g>
   <g id="matplotlib.axis_2">
    <g id="ytick_1">
     <g id="line2d_7">
      <defs>
       <path d="M 0 0 
L -3.5 0 
" id="m807b2cbd72" style="stroke:#000000;stroke-width:0.8;"/>
      </defs>
      <g>
       <use style="stroke:#000000;stroke-width:0.8;" x="57.6" xlink:href="#m807b2cbd72" y="295.44874"/>
      </g>
     </g>
     <g id="text_8">
      <!-- 0 -->
      <g transform="translate(44.2375 299.247959)scale(0.1 -0.1)">
       <use xlink:href="#DejaVuSans-30"/>
      </g>
     </g>
    </g>
    <g id="ytick_2">
     <g id="line2d_8">
      <g>
       <use style="stroke:#000000;stroke-width:0.8;" x="57.6" xlink:href="#m807b2cbd72" y="247.080444"/>
      </g>
     </g>
     <g id="text_9">
      <!-- 10 -->
      <g transform="translate(37.875 250.879663)scale(0.1 -0.1)">
       <use xlink:href="#DejaVuSans-31"/>
       <use x="63.623047" xlink:href="#DejaVuSans-30"/>
      </g>
     </g>
    </g>
    <g id="ytick_3">
     <g id="line2d_9">
      <g>
       <use style="stroke:#000000;stroke-width:0.8;" x="57.6" xlink:href="#m807b2cbd72" y="198.712148"/>
      </g>
     </g>
     <g id="text_10">
      <!-- 20 -->
      <g transform="translate(37.875 202.511367)scale(0.1 -0.1)">
       <use xlink:href="#DejaVuSans-32"/>
       <use x="63.623047" xlink:href="#DejaVuSans-30"/>
      </g>
     </g>
    </g>
    <g id="ytick_4">
     <g id="line2d_10">
      <g>
       <use style="stroke:#000000;stroke-width:0.8;" x="57.6" xlink:href="#m807b2cbd72" y="150.343852"/>
      </g>
     </g>
     <g id="text_11">
      <!-- 30 -->
      <defs>
       <path d="M 40.578125 39.3125 
Q 47.65625 37.796875 51.625 33 
Q 55.609375 28.21875 55.609375 21.1875 
Q 55.609375 10.40625 48.1875 4.484375 
Q 40.765625 -1.421875 27.09375 -1.421875 
Q 22.515625 -1.421875 17.65625 -0.515625 
Q 12.796875 0.390625 7.625 2.203125 
L 7.625 11.71875 
Q 11.71875 9.328125 16.59375 8.109375 
Q 21.484375 6.890625 26.8125 6.890625 
Q 36.078125 6.890625 40.9375 10.546875 
Q 45.796875 14.203125 45.796875 21.1875 
Q 45.796875 27.640625 41.28125 31.265625 
Q 36.765625 34.90625 28.71875 34.90625 
L 20.21875 34.90625 
L 20.21875 43.015625 
L 29.109375 43.015625 
Q 36.375 43.015625 40.234375 45.921875 
Q 44.09375 48.828125 44.09375 54.296875 
Q 44.09375 59.90625 40.109375 62.90625 
Q 36.140625 65.921875 28.71875 65.921875 
Q 24.65625 65.921875 20.015625 65.03125 
Q 15.375 64.15625 9.8125 62.3125 
L 9.8125 71.09375 
Q 15.4375 72.65625 20.34375 73.4375 
Q 25.25 74.21875 29.59375 74.21875 
Q 40.828125 74.21875 47.359375 69.109375 
Q 53.90625 64.015625 53.90625 55.328125 
Q 53.90625 49.265625 50.4375 45.09375 
Q 46.96875 40.921875 40.578125 39.3125 
z
" id="DejaVuSans-33"/>
      </defs>
      <g transform="translate(37.875 154.143071)scale(0.1 -0.1)">
       <use xlink:href="#DejaVuSans-33"/>
       <use x="63.623047" xlink:href="#DejaVuSans-30"/>
      </g>
     </g>
    </g>
    <g id="ytick_5">
     <g id="line2d_11">
      <g>
       <use style="stroke:#000000;stroke-width:0.8;" x="57.6" xlink:href="#m807b2cbd72" y="101.975556"/>
      </g>
     </g>
     <g id="text_12">
      <!-- 40 -->
      <g transform="translate(37.875 105.774775)scale(0.1 -0.1)">
       <use xlink:href="#DejaVuSans-34"/>
       <use x="63.623047" xlink:href="#DejaVuSans-30"/>
      </g>
     </g>
    </g>
    <g id="ytick_6">
     <g id="line2d_12">
      <g>
       <use style="stroke:#000000;stroke-width:0.8;" x="57.6" xlink:href="#m807b2cbd72" y="53.60726"/>
      </g>
     </g>
     <g id="text_13">
      <!-- 50 -->
      <defs>
       <path d="M 10.796875 72.90625 
L 49.515625 72.90625 
L 49.515625 64.59375 
L 19.828125 64.59375 
L 19.828125 46.734375 
Q 21.96875 47.46875 24.109375 47.828125 
Q 26.265625 48.1875 28.421875 48.1875 
Q 40.625 48.1875 47.75 41.5 
Q 54.890625 34.8125 54.890625 23.390625 
Q 54.890625 11.625 47.5625 5.09375 
Q 40.234375 -1.421875 26.90625 -1.421875 
Q 22.3125 -1.421875 17.546875 -0.640625 
Q 12.796875 0.140625 7.71875 1.703125 
L 7.71875 11.625 
Q 12.109375 9.234375 16.796875 8.0625 
Q 21.484375 6.890625 26.703125 6.890625 
Q 35.15625 6.890625 40.078125 11.328125 
Q 45.015625 15.765625 45.015625 23.390625 
Q 45.015625 31 40.078125 35.4375 
Q 35.15625 39.890625 26.703125 39.890625 
Q 22.75 39.890625 18.8125 39.015625 
Q 14.890625 38.140625 10.796875 36.28125 
z
" id="DejaVuSans-35"/>
      </defs>
      <g transform="translate(37.875 57.406479)scale(0.1 -0.1)">
       <use xlink:href="#DejaVuSans-35"/>
       <use x="63.623047" xlink:href="#DejaVuSans-30"/>
      </g>
     </g>
    </g>
    <g id="text_14">
     <!-- Optimal Policy -->
     <defs>
      <path d="M 39.40625 66.21875 
Q 28.65625 66.21875 22.328125 58.203125 
Q 16.015625 50.203125 16.015625 36.375 
Q 16.015625 22.609375 22.328125 14.59375 
Q 28.65625 6.59375 39.40625 6.59375 
Q 50.140625 6.59375 56.421875 14.59375 
Q 62.703125 22.609375 62.703125 36.375 
Q 62.703125 50.203125 56.421875 58.203125 
Q 50.140625 66.21875 39.40625 66.21875 
z
M 39.40625 74.21875 
Q 54.734375 74.21875 63.90625 63.9375 
Q 73.09375 53.65625 73.09375 36.375 
Q 73.09375 19.140625 63.90625 8.859375 
Q 54.734375 -1.421875 39.40625 -1.421875 
Q 24.03125 -1.421875 14.8125 8.828125 
Q 5.609375 19.09375 5.609375 36.375 
Q 5.609375 53.65625 14.8125 63.9375 
Q 24.03125 74.21875 39.40625 74.21875 
z
" id="DejaVuSans-4f"/>
      <path d="M 52 44.1875 
Q 55.375 50.25 60.0625 53.125 
Q 64.75 56 71.09375 56 
Q 79.640625 56 84.28125 50.015625 
Q 88.921875 44.046875 88.921875 33.015625 
L 88.921875 0 
L 79.890625 0 
L 79.890625 32.71875 
Q 79.890625 40.578125 77.09375 44.375 
Q 74.3125 48.1875 68.609375 48.1875 
Q 61.625 48.1875 57.5625 43.546875 
Q 53.515625 38.921875 53.515625 30.90625 
L 53.515625 0 
L 44.484375 0 
L 44.484375 32.71875 
Q 44.484375 40.625 41.703125 44.40625 
Q 38.921875 48.1875 33.109375 48.1875 
Q 26.21875 48.1875 22.15625 43.53125 
Q 18.109375 38.875 18.109375 30.90625 
L 18.109375 0 
L 9.078125 0 
L 9.078125 54.6875 
L 18.109375 54.6875 
L 18.109375 46.1875 
Q 21.1875 51.21875 25.484375 53.609375 
Q 29.78125 56 35.6875 56 
Q 41.65625 56 45.828125 52.96875 
Q 50 49.953125 52 44.1875 
z
" id="DejaVuSans-6d"/>
      <path id="DejaVuSans-20"/>
      <path d="M 19.671875 64.796875 
L 19.671875 37.40625 
L 32.078125 37.40625 
Q 38.96875 37.40625 42.71875 40.96875 
Q 46.484375 44.53125 46.484375 51.125 
Q 46.484375 57.671875 42.71875 61.234375 
Q 38.96875 64.796875 32.078125 64.796875 
z
M 9.8125 72.90625 
L 32.078125 72.90625 
Q 44.34375 72.90625 50.609375 67.359375 
Q 56.890625 61.8125 56.890625 51.125 
Q 56.890625 40.328125 50.609375 34.8125 
Q 44.34375 29.296875 32.078125 29.296875 
L 19.671875 29.296875 
L 19.671875 0 
L 9.8125 0 
z
" id="DejaVuSans-50"/>
      <path d="M 30.609375 48.390625 
Q 23.390625 48.390625 19.1875 42.75 
Q 14.984375 37.109375 14.984375 27.296875 
Q 14.984375 17.484375 19.15625 11.84375 
Q 23.34375 6.203125 30.609375 6.203125 
Q 37.796875 6.203125 41.984375 11.859375 
Q 46.1875 17.53125 46.1875 27.296875 
Q 46.1875 37.015625 41.984375 42.703125 
Q 37.796875 48.390625 30.609375 48.390625 
z
M 30.609375 56 
Q 42.328125 56 49.015625 48.375 
Q 55.71875 40.765625 55.71875 27.296875 
Q 55.71875 13.875 49.015625 6.21875 
Q 42.328125 -1.421875 30.609375 -1.421875 
Q 18.84375 -1.421875 12.171875 6.21875 
Q 5.515625 13.875 5.515625 27.296875 
Q 5.515625 40.765625 12.171875 48.375 
Q 18.84375 56 30.609375 56 
z
" id="DejaVuSans-6f"/>
      <path d="M 48.78125 52.59375 
L 48.78125 44.1875 
Q 44.96875 46.296875 41.140625 47.34375 
Q 37.3125 48.390625 33.40625 48.390625 
Q 24.65625 48.390625 19.8125 42.84375 
Q 14.984375 37.3125 14.984375 27.296875 
Q 14.984375 17.28125 19.8125 11.734375 
Q 24.65625 6.203125 33.40625 6.203125 
Q 37.3125 6.203125 41.140625 7.25 
Q 44.96875 8.296875 48.78125 10.40625 
L 48.78125 2.09375 
Q 45.015625 0.34375 40.984375 -0.53125 
Q 36.96875 -1.421875 32.421875 -1.421875 
Q 20.0625 -1.421875 12.78125 6.34375 
Q 5.515625 14.109375 5.515625 27.296875 
Q 5.515625 40.671875 12.859375 48.328125 
Q 20.21875 56 33.015625 56 
Q 37.15625 56 41.109375 55.140625 
Q 45.0625 54.296875 48.78125 52.59375 
z
" id="DejaVuSans-63"/>
      <path d="M 32.171875 -5.078125 
Q 28.375 -14.84375 24.75 -17.8125 
Q 21.140625 -20.796875 15.09375 -20.796875 
L 7.90625 -20.796875 
L 7.90625 -13.28125 
L 13.1875 -13.28125 
Q 16.890625 -13.28125 18.9375 -11.515625 
Q 21 -9.765625 23.484375 -3.21875 
L 25.09375 0.875 
L 2.984375 54.6875 
L 12.5 54.6875 
L 29.59375 11.921875 
L 46.6875 54.6875 
L 56.203125 54.6875 
z
" id="DejaVuSans-79"/>
     </defs>
     <g transform="translate(31.795312 210.458469)rotate(-90)scale(0.1 -0.1)">
      <use xlink:href="#DejaVuSans-4f"/>
      <use x="78.710938" xlink:href="#DejaVuSans-70"/>
      <use x="142.1875" xlink:href="#DejaVuSans-74"/>
      <use x="181.396484" xlink:href="#DejaVuSans-69"/>
      <use x="209.179688" xlink:href="#DejaVuSans-6d"/>
      <use x="306.591797" xlink:href="#DejaVuSans-61"/>
      <use x="367.871094" xlink:href="#DejaVuSans-6c"/>
      <use x="395.654297" xlink:href="#DejaVuSans-20"/>
      <use x="427.441406" xlink:href="#DejaVuSans-50"/>
      <use x="487.697266" xlink:href="#DejaVuSans-6f"/>
      <use x="548.878906" xlink:href="#DejaVuSans-6c"/>
      <use x="576.662109" xlink:href="#DejaVuSans-69"/>
      <use x="604.445312" xlink:href="#DejaVuSans-63"/>
      <use x="659.425781" xlink:href="#DejaVuSans-79"/>
     </g>
    </g>
   </g>
   <g id="patch_3">
    <path d="M 57.6 307.584 
L 57.6 41.472 
" style="fill:none;stroke:#000000;stroke-linecap:square;stroke-linejoin:miter;stroke-width:0.8;"/>
   </g>
   <g id="patch_4">
    <path d="M 414.72 307.584 
L 414.72 41.472 
" style="fill:none;stroke:#000000;stroke-linecap:square;stroke-linejoin:miter;stroke-width:0.8;"/>
   </g>
   <g id="patch_5">
    <path d="M 57.6 307.584 
L 414.72 307.584 
" style="fill:none;stroke:#000000;stroke-linecap:square;stroke-linejoin:miter;stroke-width:0.8;"/>
   </g>
   <g id="patch_6">
    <path d="M 57.6 41.472 
L 414.72 41.472 
" style="fill:none;stroke:#000000;stroke-linecap:square;stroke-linejoin:miter;stroke-width:0.8;"/>
   </g>
  </g>
 </g>
 <defs>
  <clipPath id="p64e57d5be3">
   <rect height="266.112" width="357.12" x="57.6" y="41.472"/>
  </clipPath>
 </defs>
</svg>
