<?xml version="1.0" encoding="utf-8" standalone="no"?>
<!DOCTYPE svg PUBLIC "-//W3C//DTD SVG 1.1//EN"
  "http://www.w3.org/Graphics/SVG/1.1/DTD/svg11.dtd">
<!-- Created with matplotlib (http://matplotlib.org/) -->
<svg height="345pt" version="1.1" viewBox="0 0 460 345" width="460pt" xmlns="http://www.w3.org/2000/svg" xmlns:xlink="http://www.w3.org/1999/xlink">
 <defs>
  <style type="text/css">
*{stroke-linecap:butt;stroke-linejoin:round;}
  </style>
 </defs>
 <g id="figure_1">
  <g id="patch_1">
   <path d="M 0 345.6 
L 460.8 345.6 
L 460.8 0 
L 0 0 
z
" style="fill:#ffffff;"/>
  </g>
  <g id="axes_1">
   <g id="patch_2">
    <path d="M 57.6 307.584 
L 414.72 307.584 
L 414.72 41.472 
L 57.6 41.472 
z
" style="fill:#ffffff;"/>
   </g>
   <g id="matplotlib.axis_1">
    <g id="xtick_1">
     <g id="line2d_1">
      <defs>
       <path d="M 0 0 
L 0 3.5 
" id="mc59abae783" style="stroke:#000000;stroke-width:0.8;"/>
      </defs>
      <g>
       <use style="stroke:#000000;stroke-width:0.8;" x="73.832727" xlink:href="#mc59abae783" y="307.584"/>
      </g>
     </g>
     <g id="text_1">
      <!-- 0 -->
      <defs>
       <path d="M 31.78125 66.40625 
Q 24.171875 66.40625 20.328125 58.90625 
Q 16.5 51.421875 16.5 36.375 
Q 16.5 21.390625 20.328125 13.890625 
Q 24.171875 6.390625 31.78125 6.390625 
Q 39.453125 6.390625 43.28125 13.890625 
Q 47.125 21.390625 47.125 36.375 
Q 47.125 51.421875 43.28125 58.90625 
Q 39.453125 66.40625 31.78125 66.40625 
z
M 31.78125 74.21875 
Q 44.046875 74.21875 50.515625 64.515625 
Q 56.984375 54.828125 56.984375 36.375 
Q 56.984375 17.96875 50.515625 8.265625 
Q 44.046875 -1.421875 31.78125 -1.421875 
Q 19.53125 -1.421875 13.0625 8.265625 
Q 6.59375 17.96875 6.59375 36.375 
Q 6.59375 54.828125 13.0625 64.515625 
Q 19.53125 74.21875 31.78125 74.21875 
z
" id="DejaVuSans-30"/>
      </defs>
      <g transform="translate(70.651477 322.182437)scale(0.1 -0.1)">
       <use xlink:href="#DejaVuSans-30"/>
      </g>
     </g>
    </g>
    <g id="xtick_2">
     <g id="line2d_2">
      <g>
       <use style="stroke:#000000;stroke-width:0.8;" x="138.763636" xlink:href="#mc59abae783" y="307.584"/>
      </g>
     </g>
     <g id="text_2">
      <!-- 20 -->
      <defs>
       <path d="M 19.1875 8.296875 
L 53.609375 8.296875 
L 53.609375 0 
L 7.328125 0 
L 7.328125 8.296875 
Q 12.9375 14.109375 22.625 23.890625 
Q 32.328125 33.6875 34.8125 36.53125 
Q 39.546875 41.84375 41.421875 45.53125 
Q 43.3125 49.21875 43.3125 52.78125 
Q 43.3125 58.59375 39.234375 62.25 
Q 35.15625 65.921875 28.609375 65.921875 
Q 23.96875 65.921875 18.8125 64.3125 
Q 13.671875 62.703125 7.8125 59.421875 
L 7.8125 69.390625 
Q 13.765625 71.78125 18.9375 73 
Q 24.125 74.21875 28.421875 74.21875 
Q 39.75 74.21875 46.484375 68.546875 
Q 53.21875 62.890625 53.21875 53.421875 
Q 53.21875 48.921875 51.53125 44.890625 
Q 49.859375 40.875 45.40625 35.40625 
Q 44.1875 33.984375 37.640625 27.21875 
Q 31.109375 20.453125 19.1875 8.296875 
z
" id="DejaVuSans-32"/>
      </defs>
      <g transform="translate(132.401136 322.182437)scale(0.1 -0.1)">
       <use xlink:href="#DejaVuSans-32"/>
       <use x="63.623047" xlink:href="#DejaVuSans-30"/>
      </g>
     </g>
    </g>
    <g id="xtick_3">
     <g id="line2d_3">
      <g>
       <use style="stroke:#000000;stroke-width:0.8;" x="203.694545" xlink:href="#mc59abae783" y="307.584"/>
      </g>
     </g>
     <g id="text_3">
      <!-- 40 -->
      <defs>
       <path d="M 37.796875 64.3125 
L 12.890625 25.390625 
L 37.796875 25.390625 
z
M 35.203125 72.90625 
L 47.609375 72.90625 
L 47.609375 25.390625 
L 58.015625 25.390625 
L 58.015625 17.1875 
L 47.609375 17.1875 
L 47.609375 0 
L 37.796875 0 
L 37.796875 17.1875 
L 4.890625 17.1875 
L 4.890625 26.703125 
z
" id="DejaVuSans-34"/>
      </defs>
      <g transform="translate(197.332045 322.182437)scale(0.1 -0.1)">
       <use xlink:href="#DejaVuSans-34"/>
       <use x="63.623047" xlink:href="#DejaVuSans-30"/>
      </g>
     </g>
    </g>
    <g id="xtick_4">
     <g id="line2d_4">
      <g>
       <use style="stroke:#000000;stroke-width:0.8;" x="268.625455" xlink:href="#mc59abae783" y="307.584"/>
      </g>
     </g>
     <g id="text_4">
      <!-- 60 -->
      <defs>
       <path d="M 33.015625 40.375 
Q 26.375 40.375 22.484375 35.828125 
Q 18.609375 31.296875 18.609375 23.390625 
Q 18.609375 15.53125 22.484375 10.953125 
Q 26.375 6.390625 33.015625 6.390625 
Q 39.65625 6.390625 43.53125 10.953125 
Q 47.40625 15.53125 47.40625 23.390625 
Q 47.40625 31.296875 43.53125 35.828125 
Q 39.65625 40.375 33.015625 40.375 
z
M 52.59375 71.296875 
L 52.59375 62.3125 
Q 48.875 64.0625 45.09375 64.984375 
Q 41.3125 65.921875 37.59375 65.921875 
Q 27.828125 65.921875 22.671875 59.328125 
Q 17.53125 52.734375 16.796875 39.40625 
Q 19.671875 43.65625 24.015625 45.921875 
Q 28.375 48.1875 33.59375 48.1875 
Q 44.578125 48.1875 50.953125 41.515625 
Q 57.328125 34.859375 57.328125 23.390625 
Q 57.328125 12.15625 50.6875 5.359375 
Q 44.046875 -1.421875 33.015625 -1.421875 
Q 20.359375 -1.421875 13.671875 8.265625 
Q 6.984375 17.96875 6.984375 36.375 
Q 6.984375 53.65625 15.1875 63.9375 
Q 23.390625 74.21875 37.203125 74.21875 
Q 40.921875 74.21875 44.703125 73.484375 
Q 48.484375 72.75 52.59375 71.296875 
z
" id="DejaVuSans-36"/>
      </defs>
      <g transform="translate(262.262955 322.182437)scale(0.1 -0.1)">
       <use xlink:href="#DejaVuSans-36"/>
       <use x="63.623047" xlink:href="#DejaVuSans-30"/>
      </g>
     </g>
    </g>
    <g id="xtick_5">
     <g id="line2d_5">
      <g>
       <use style="stroke:#000000;stroke-width:0.8;" x="333.556364" xlink:href="#mc59abae783" y="307.584"/>
      </g>
     </g>
     <g id="text_5">
      <!-- 80 -->
      <defs>
       <path d="M 31.78125 34.625 
Q 24.75 34.625 20.71875 30.859375 
Q 16.703125 27.09375 16.703125 20.515625 
Q 16.703125 13.921875 20.71875 10.15625 
Q 24.75 6.390625 31.78125 6.390625 
Q 38.8125 6.390625 42.859375 10.171875 
Q 46.921875 13.96875 46.921875 20.515625 
Q 46.921875 27.09375 42.890625 30.859375 
Q 38.875 34.625 31.78125 34.625 
z
M 21.921875 38.8125 
Q 15.578125 40.375 12.03125 44.71875 
Q 8.5 49.078125 8.5 55.328125 
Q 8.5 64.0625 14.71875 69.140625 
Q 20.953125 74.21875 31.78125 74.21875 
Q 42.671875 74.21875 48.875 69.140625 
Q 55.078125 64.0625 55.078125 55.328125 
Q 55.078125 49.078125 51.53125 44.71875 
Q 48 40.375 41.703125 38.8125 
Q 48.828125 37.15625 52.796875 32.3125 
Q 56.78125 27.484375 56.78125 20.515625 
Q 56.78125 9.90625 50.3125 4.234375 
Q 43.84375 -1.421875 31.78125 -1.421875 
Q 19.734375 -1.421875 13.25 4.234375 
Q 6.78125 9.90625 6.78125 20.515625 
Q 6.78125 27.484375 10.78125 32.3125 
Q 14.796875 37.15625 21.921875 38.8125 
z
M 18.3125 54.390625 
Q 18.3125 48.734375 21.84375 45.5625 
Q 25.390625 42.390625 31.78125 42.390625 
Q 38.140625 42.390625 41.71875 45.5625 
Q 45.3125 48.734375 45.3125 54.390625 
Q 45.3125 60.0625 41.71875 63.234375 
Q 38.140625 66.40625 31.78125 66.40625 
Q 25.390625 66.40625 21.84375 63.234375 
Q 18.3125 60.0625 18.3125 54.390625 
z
" id="DejaVuSans-38"/>
      </defs>
      <g transform="translate(327.193864 322.182437)scale(0.1 -0.1)">
       <use xlink:href="#DejaVuSans-38"/>
       <use x="63.623047" xlink:href="#DejaVuSans-30"/>
      </g>
     </g>
    </g>
    <g id="xtick_6">
     <g id="line2d_6">
      <g>
       <use style="stroke:#000000;stroke-width:0.8;" x="398.487273" xlink:href="#mc59abae783" y="307.584"/>
      </g>
     </g>
     <g id="text_6">
      <!-- 100 -->
      <defs>
       <path d="M 12.40625 8.296875 
L 28.515625 8.296875 
L 28.515625 63.921875 
L 10.984375 60.40625 
L 10.984375 69.390625 
L 28.421875 72.90625 
L 38.28125 72.90625 
L 38.28125 8.296875 
L 54.390625 8.296875 
L 54.390625 0 
L 12.40625 0 
z
" id="DejaVuSans-31"/>
      </defs>
      <g transform="translate(388.943523 322.182437)scale(0.1 -0.1)">
       <use xlink:href="#DejaVuSans-31"/>
       <use x="63.623047" xlink:href="#DejaVuSans-30"/>
       <use x="127.246094" xlink:href="#DejaVuSans-30"/>
      </g>
     </g>
    </g>
    <g id="text_7">
     <!-- Capital -->
     <defs>
      <path d="M 64.40625 67.28125 
L 64.40625 56.890625 
Q 59.421875 61.53125 53.78125 63.8125 
Q 48.140625 66.109375 41.796875 66.109375 
Q 29.296875 66.109375 22.65625 58.46875 
Q 16.015625 50.828125 16.015625 36.375 
Q 16.015625 21.96875 22.65625 14.328125 
Q 29.296875 6.6875 41.796875 6.6875 
Q 48.140625 6.6875 53.78125 8.984375 
Q 59.421875 11.28125 64.40625 15.921875 
L 64.40625 5.609375 
Q 59.234375 2.09375 53.4375 0.328125 
Q 47.65625 -1.421875 41.21875 -1.421875 
Q 24.65625 -1.421875 15.125 8.703125 
Q 5.609375 18.84375 5.609375 36.375 
Q 5.609375 53.953125 15.125 64.078125 
Q 24.65625 74.21875 41.21875 74.21875 
Q 47.75 74.21875 53.53125 72.484375 
Q 59.328125 70.75 64.40625 67.28125 
z
" id="DejaVuSans-43"/>
      <path d="M 34.28125 27.484375 
Q 23.390625 27.484375 19.1875 25 
Q 14.984375 22.515625 14.984375 16.5 
Q 14.984375 11.71875 18.140625 8.90625 
Q 21.296875 6.109375 26.703125 6.109375 
Q 34.1875 6.109375 38.703125 11.40625 
Q 43.21875 16.703125 43.21875 25.484375 
L 43.21875 27.484375 
z
M 52.203125 31.203125 
L 52.203125 0 
L 43.21875 0 
L 43.21875 8.296875 
Q 40.140625 3.328125 35.546875 0.953125 
Q 30.953125 -1.421875 24.3125 -1.421875 
Q 15.921875 -1.421875 10.953125 3.296875 
Q 6 8.015625 6 15.921875 
Q 6 25.140625 12.171875 29.828125 
Q 18.359375 34.515625 30.609375 34.515625 
L 43.21875 34.515625 
L 43.21875 35.40625 
Q 43.21875 41.609375 39.140625 45 
Q 35.0625 48.390625 27.6875 48.390625 
Q 23 48.390625 18.546875 47.265625 
Q 14.109375 46.140625 10.015625 43.890625 
L 10.015625 52.203125 
Q 14.9375 54.109375 19.578125 55.046875 
Q 24.21875 56 28.609375 56 
Q 40.484375 56 46.34375 49.84375 
Q 52.203125 43.703125 52.203125 31.203125 
z
" id="DejaVuSans-61"/>
      <path d="M 18.109375 8.203125 
L 18.109375 -20.796875 
L 9.078125 -20.796875 
L 9.078125 54.6875 
L 18.109375 54.6875 
L 18.109375 46.390625 
Q 20.953125 51.265625 25.265625 53.625 
Q 29.59375 56 35.59375 56 
Q 45.5625 56 51.78125 48.09375 
Q 58.015625 40.1875 58.015625 27.296875 
Q 58.015625 14.40625 51.78125 6.484375 
Q 45.5625 -1.421875 35.59375 -1.421875 
Q 29.59375 -1.421875 25.265625 0.953125 
Q 20.953125 3.328125 18.109375 8.203125 
z
M 48.6875 27.296875 
Q 48.6875 37.203125 44.609375 42.84375 
Q 40.53125 48.484375 33.40625 48.484375 
Q 26.265625 48.484375 22.1875 42.84375 
Q 18.109375 37.203125 18.109375 27.296875 
Q 18.109375 17.390625 22.1875 11.75 
Q 26.265625 6.109375 33.40625 6.109375 
Q 40.53125 6.109375 44.609375 11.75 
Q 48.6875 17.390625 48.6875 27.296875 
z
" id="DejaVuSans-70"/>
      <path d="M 9.421875 54.6875 
L 18.40625 54.6875 
L 18.40625 0 
L 9.421875 0 
z
M 9.421875 75.984375 
L 18.40625 75.984375 
L 18.40625 64.59375 
L 9.421875 64.59375 
z
" id="DejaVuSans-69"/>
      <path d="M 18.3125 70.21875 
L 18.3125 54.6875 
L 36.8125 54.6875 
L 36.8125 47.703125 
L 18.3125 47.703125 
L 18.3125 18.015625 
Q 18.3125 11.328125 20.140625 9.421875 
Q 21.96875 7.515625 27.59375 7.515625 
L 36.8125 7.515625 
L 36.8125 0 
L 27.59375 0 
Q 17.1875 0 13.234375 3.875 
Q 9.28125 7.765625 9.28125 18.015625 
L 9.28125 47.703125 
L 2.6875 47.703125 
L 2.6875 54.6875 
L 9.28125 54.6875 
L 9.28125 70.21875 
z
" id="DejaVuSans-74"/>
      <path d="M 9.421875 75.984375 
L 18.40625 75.984375 
L 18.40625 0 
L 9.421875 0 
z
" id="DejaVuSans-6c"/>
     </defs>
     <g transform="translate(218.627969 335.860562)scale(0.1 -0.1)">
      <use xlink:href="#DejaVuSans-43"/>
      <use x="69.824219" xlink:href="#DejaVuSans-61"/>
      <use x="131.103516" xlink:href="#DejaVuSans-70"/>
      <use x="194.580078" xlink:href="#DejaVuSans-69"/>
      <use x="222.363281" xlink:href="#DejaVuSans-74"/>
      <use x="261.572266" xlink:href="#DejaVuSans-61"/>
      <use x="322.851562" xlink:href="#DejaVuSans-6c"/>
     </g>
    </g>
   </g>
   <g id="matplotlib.axis_2">
    <g id="ytick_1">
     <g id="line2d_7">
      <defs>
       <path d="M 0 0 
L -3.5 0 
" id="md929626966" style="stroke:#000000;stroke-width:0.8;"/>
      </defs>
      <g>
       <use style="stroke:#000000;stroke-width:0.8;" x="57.6" xlink:href="#md929626966" y="295.488"/>
      </g>
     </g>
     <g id="text_8">
      <!-- 0.0 -->
      <defs>
       <path d="M 10.6875 12.40625 
L 21 12.40625 
L 21 0 
L 10.6875 0 
z
" id="DejaVuSans-2e"/>
      </defs>
      <g transform="translate(34.696875 299.287219)scale(0.1 -0.1)">
       <use xlink:href="#DejaVuSans-30"/>
       <use x="63.623047" xlink:href="#DejaVuSans-2e"/>
       <use x="95.410156" xlink:href="#DejaVuSans-30"/>
      </g>
     </g>
    </g>
    <g id="ytick_2">
     <g id="line2d_8">
      <g>
       <use style="stroke:#000000;stroke-width:0.8;" x="57.6" xlink:href="#md929626966" y="247.104"/>
      </g>
     </g>
     <g id="text_9">
      <!-- 0.2 -->
      <g transform="translate(34.696875 250.903219)scale(0.1 -0.1)">
       <use xlink:href="#DejaVuSans-30"/>
       <use x="63.623047" xlink:href="#DejaVuSans-2e"/>
       <use x="95.410156" xlink:href="#DejaVuSans-32"/>
      </g>
     </g>
    </g>
    <g id="ytick_3">
     <g id="line2d_9">
      <g>
       <use style="stroke:#000000;stroke-width:0.8;" x="57.6" xlink:href="#md929626966" y="198.72"/>
      </g>
     </g>
     <g id="text_10">
      <!-- 0.4 -->
      <g transform="translate(34.696875 202.519219)scale(0.1 -0.1)">
       <use xlink:href="#DejaVuSans-30"/>
       <use x="63.623047" xlink:href="#DejaVuSans-2e"/>
       <use x="95.410156" xlink:href="#DejaVuSans-34"/>
      </g>
     </g>
    </g>
    <g id="ytick_4">
     <g id="line2d_10">
      <g>
       <use style="stroke:#000000;stroke-width:0.8;" x="57.6" xlink:href="#md929626966" y="150.336"/>
      </g>
     </g>
     <g id="text_11">
      <!-- 0.6 -->
      <g transform="translate(34.696875 154.135219)scale(0.1 -0.1)">
       <use xlink:href="#DejaVuSans-30"/>
       <use x="63.623047" xlink:href="#DejaVuSans-2e"/>
       <use x="95.410156" xlink:href="#DejaVuSans-36"/>
      </g>
     </g>
    </g>
    <g id="ytick_5">
     <g id="line2d_11">
      <g>
       <use style="stroke:#000000;stroke-width:0.8;" x="57.6" xlink:href="#md929626966" y="101.952"/>
      </g>
     </g>
     <g id="text_12">
      <!-- 0.8 -->
      <g transform="translate(34.696875 105.751219)scale(0.1 -0.1)">
       <use xlink:href="#DejaVuSans-30"/>
       <use x="63.623047" xlink:href="#DejaVuSans-2e"/>
       <use x="95.410156" xlink:href="#DejaVuSans-38"/>
      </g>
     </g>
    </g>
    <g id="ytick_6">
     <g id="line2d_12">
      <g>
       <use style="stroke:#000000;stroke-width:0.8;" x="57.6" xlink:href="#md929626966" y="53.568"/>
      </g>
     </g>
     <g id="text_13">
      <!-- 1.0 -->
      <g transform="translate(34.696875 57.367219)scale(0.1 -0.1)">
       <use xlink:href="#DejaVuSans-31"/>
       <use x="63.623047" xlink:href="#DejaVuSans-2e"/>
       <use x="95.410156" xlink:href="#DejaVuSans-30"/>
      </g>
     </g>
    </g>
    <g id="text_14">
     <!-- Value State -->
     <defs>
      <path d="M 28.609375 0 
L 0.78125 72.90625 
L 11.078125 72.90625 
L 34.1875 11.53125 
L 57.328125 72.90625 
L 67.578125 72.90625 
L 39.796875 0 
z
" id="DejaVuSans-56"/>
      <path d="M 8.5 21.578125 
L 8.5 54.6875 
L 17.484375 54.6875 
L 17.484375 21.921875 
Q 17.484375 14.15625 20.5 10.265625 
Q 23.53125 6.390625 29.59375 6.390625 
Q 36.859375 6.390625 41.078125 11.03125 
Q 45.3125 15.671875 45.3125 23.6875 
L 45.3125 54.6875 
L 54.296875 54.6875 
L 54.296875 0 
L 45.3125 0 
L 45.3125 8.40625 
Q 42.046875 3.421875 37.71875 1 
Q 33.40625 -1.421875 27.6875 -1.421875 
Q 18.265625 -1.421875 13.375 4.4375 
Q 8.5 10.296875 8.5 21.578125 
z
M 31.109375 56 
z
" id="DejaVuSans-75"/>
      <path d="M 56.203125 29.59375 
L 56.203125 25.203125 
L 14.890625 25.203125 
Q 15.484375 15.921875 20.484375 11.0625 
Q 25.484375 6.203125 34.421875 6.203125 
Q 39.59375 6.203125 44.453125 7.46875 
Q 49.3125 8.734375 54.109375 11.28125 
L 54.109375 2.78125 
Q 49.265625 0.734375 44.1875 -0.34375 
Q 39.109375 -1.421875 33.890625 -1.421875 
Q 20.796875 -1.421875 13.15625 6.1875 
Q 5.515625 13.8125 5.515625 26.8125 
Q 5.515625 40.234375 12.765625 48.109375 
Q 20.015625 56 32.328125 56 
Q 43.359375 56 49.78125 48.890625 
Q 56.203125 41.796875 56.203125 29.59375 
z
M 47.21875 32.234375 
Q 47.125 39.59375 43.09375 43.984375 
Q 39.0625 48.390625 32.421875 48.390625 
Q 24.90625 48.390625 20.390625 44.140625 
Q 15.875 39.890625 15.1875 32.171875 
z
" id="DejaVuSans-65"/>
      <path id="DejaVuSans-20"/>
      <path d="M 53.515625 70.515625 
L 53.515625 60.890625 
Q 47.90625 63.578125 42.921875 64.890625 
Q 37.9375 66.21875 33.296875 66.21875 
Q 25.25 66.21875 20.875 63.09375 
Q 16.5 59.96875 16.5 54.203125 
Q 16.5 49.359375 19.40625 46.890625 
Q 22.3125 44.4375 30.421875 42.921875 
L 36.375 41.703125 
Q 47.40625 39.59375 52.65625 34.296875 
Q 57.90625 29 57.90625 20.125 
Q 57.90625 9.515625 50.796875 4.046875 
Q 43.703125 -1.421875 29.984375 -1.421875 
Q 24.8125 -1.421875 18.96875 -0.25 
Q 13.140625 0.921875 6.890625 3.21875 
L 6.890625 13.375 
Q 12.890625 10.015625 18.65625 8.296875 
Q 24.421875 6.59375 29.984375 6.59375 
Q 38.421875 6.59375 43.015625 9.90625 
Q 47.609375 13.234375 47.609375 19.390625 
Q 47.609375 24.75 44.3125 27.78125 
Q 41.015625 30.8125 33.5 32.328125 
L 27.484375 33.5 
Q 16.453125 35.6875 11.515625 40.375 
Q 6.59375 45.0625 6.59375 53.421875 
Q 6.59375 63.09375 13.40625 68.65625 
Q 20.21875 74.21875 32.171875 74.21875 
Q 37.3125 74.21875 42.625 73.28125 
Q 47.953125 72.359375 53.515625 70.515625 
z
" id="DejaVuSans-53"/>
     </defs>
     <g transform="translate(28.617187 203.4655)rotate(-90)scale(0.1 -0.1)">
      <use xlink:href="#DejaVuSans-56"/>
      <use x="68.298828" xlink:href="#DejaVuSans-61"/>
      <use x="129.578125" xlink:href="#DejaVuSans-6c"/>
      <use x="157.361328" xlink:href="#DejaVuSans-75"/>
      <use x="220.740234" xlink:href="#DejaVuSans-65"/>
      <use x="282.263672" xlink:href="#DejaVuSans-20"/>
      <use x="314.050781" xlink:href="#DejaVuSans-53"/>
      <use x="377.527344" xlink:href="#DejaVuSans-74"/>
      <use x="416.736328" xlink:href="#DejaVuSans-61"/>
      <use x="478.015625" xlink:href="#DejaVuSans-74"/>
      <use x="517.224609" xlink:href="#DejaVuSans-65"/>
     </g>
    </g>
   </g>
   <g id="line2d_13">
    <path clip-path="url(#p872919db31)" d="M 73.832727 295.488 
L 77.079273 295.488 
L 80.325818 295.488 
L 83.572364 295.488 
L 86.818909 295.488 
L 90.065455 295.488 
L 93.312 295.488 
L 96.558545 295.488 
L 99.805091 295.488 
L 103.051636 295.488 
L 106.298182 295.488 
L 109.544727 295.488 
L 112.791273 295.488 
L 116.037818 295.488 
L 119.284364 295.488 
L 122.530909 295.488 
L 125.777455 295.488 
L 129.024 295.488 
L 132.270545 295.488 
L 135.517091 295.488 
L 138.763636 295.488 
L 142.010182 295.488 
L 145.256727 295.488 
L 148.503273 295.488 
L 151.749818 295.488 
L 154.996364 295.488 
L 158.242909 295.488 
L 161.489455 295.488 
L 164.736 295.488 
L 167.982545 295.488 
L 171.229091 295.488 
L 174.475636 295.488 
L 177.722182 295.488 
L 180.968727 295.488 
L 184.215273 295.488 
L 187.461818 295.488 
L 190.708364 295.488 
L 193.954909 295.488 
L 197.201455 295.488 
L 200.448 295.488 
L 203.694545 295.488 
L 206.941091 295.488 
L 210.187636 295.488 
L 213.434182 295.488 
L 216.680727 295.488 
L 219.927273 295.488 
L 223.173818 295.488 
L 226.420364 295.488 
L 229.666909 295.488 
L 232.913455 295.488 
L 236.16 162.432 
L 239.406545 162.432 
L 242.653091 162.432 
L 245.899636 162.432 
L 249.146182 162.432 
L 252.392727 162.432 
L 255.639273 162.432 
L 258.885818 162.432 
L 262.132364 162.432 
L 265.378909 162.432 
L 268.625455 162.432 
L 271.872 162.432 
L 275.118545 162.432 
L 278.365091 162.432 
L 281.611636 162.432 
L 284.858182 162.432 
L 288.104727 162.432 
L 291.351273 162.432 
L 294.597818 162.432 
L 297.844364 162.432 
L 301.090909 162.432 
L 304.337455 162.432 
L 307.584 162.432 
L 310.830545 162.432 
L 314.077091 162.432 
L 317.323636 162.432 
L 320.570182 162.432 
L 323.816727 162.432 
L 327.063273 162.432 
L 330.309818 162.432 
L 333.556364 162.432 
L 336.802909 162.432 
L 340.049455 162.432 
L 343.296 162.432 
L 346.542545 162.432 
L 349.789091 162.432 
L 353.035636 162.432 
L 356.282182 162.432 
L 359.528727 162.432 
L 362.775273 162.432 
L 366.021818 162.432 
L 369.268364 162.432 
L 372.514909 162.432 
L 375.761455 162.432 
L 379.008 162.432 
L 382.254545 162.432 
L 385.501091 162.432 
L 388.747636 162.432 
L 391.994182 162.432 
L 395.240727 162.432 
L 398.487273 53.568 
" style="fill:none;stroke:#1f77b4;stroke-linecap:square;stroke-width:1.5;"/>
   </g>
   <g id="line2d_14">
    <path clip-path="url(#p872919db31)" d="M 73.832727 295.488 
L 77.079273 295.488 
L 80.325818 295.488 
L 83.572364 295.488 
L 86.818909 295.488 
L 90.065455 295.488 
L 93.312 295.488 
L 96.558545 295.488 
L 99.805091 295.488 
L 103.051636 295.488 
L 106.298182 295.488 
L 109.544727 295.488 
L 112.791273 295.488 
L 116.037818 295.488 
L 119.284364 295.488 
L 122.530909 295.488 
L 125.777455 295.488 
L 129.024 295.488 
L 132.270545 295.488 
L 135.517091 295.488 
L 138.763636 295.488 
L 142.010182 295.488 
L 145.256727 295.488 
L 148.503273 295.488 
L 151.749818 295.488 
L 154.996364 222.3072 
L 158.242909 222.3072 
L 161.489455 222.3072 
L 164.736 222.3072 
L 167.982545 222.3072 
L 171.229091 222.3072 
L 174.475636 222.3072 
L 177.722182 222.3072 
L 180.968727 222.3072 
L 184.215273 222.3072 
L 187.461818 222.3072 
L 190.708364 222.3072 
L 193.954909 222.3072 
L 197.201455 222.3072 
L 200.448 222.3072 
L 203.694545 222.3072 
L 206.941091 222.3072 
L 210.187636 222.3072 
L 213.434182 222.3072 
L 216.680727 222.3072 
L 219.927273 222.3072 
L 223.173818 222.3072 
L 226.420364 222.3072 
L 229.666909 222.3072 
L 232.913455 222.3072 
L 236.16 162.432 
L 239.406545 162.432 
L 242.653091 162.432 
L 245.899636 162.432 
L 249.146182 162.432 
L 252.392727 162.432 
L 255.639273 162.432 
L 258.885818 162.432 
L 262.132364 162.432 
L 265.378909 162.432 
L 268.625455 162.432 
L 271.872 162.432 
L 275.118545 162.432 
L 278.365091 162.432 
L 281.611636 162.432 
L 284.858182 162.432 
L 288.104727 162.432 
L 291.351273 162.432 
L 294.597818 162.432 
L 297.844364 162.432 
L 301.090909 162.432 
L 304.337455 162.432 
L 307.584 162.432 
L 310.830545 162.432 
L 314.077091 162.432 
L 317.323636 102.5568 
L 320.570182 102.5568 
L 323.816727 102.5568 
L 327.063273 102.5568 
L 330.309818 102.5568 
L 333.556364 102.5568 
L 336.802909 102.5568 
L 340.049455 102.5568 
L 343.296 102.5568 
L 346.542545 102.5568 
L 349.789091 102.5568 
L 353.035636 102.5568 
L 356.282182 102.5568 
L 359.528727 102.5568 
L 362.775273 102.5568 
L 366.021818 102.5568 
L 369.268364 102.5568 
L 372.514909 102.5568 
L 375.761455 102.5568 
L 379.008 102.5568 
L 382.254545 102.5568 
L 385.501091 102.5568 
L 388.747636 102.5568 
L 391.994182 102.5568 
L 395.240727 102.5568 
L 398.487273 53.568 
" style="fill:none;stroke:#ff7f0e;stroke-linecap:square;stroke-width:1.5;"/>
   </g>
   <g id="line2d_15">
    <path clip-path="url(#p872919db31)" d="M 73.832727 295.488 
L 77.079273 295.488 
L 80.325818 295.488 
L 83.572364 295.488 
L 86.818909 295.488 
L 90.065455 295.488 
L 93.312 295.488 
L 96.558545 295.488 
L 99.805091 295.488 
L 103.051636 295.488 
L 106.298182 295.488 
L 109.544727 295.488 
L 112.791273 295.488 
L 116.037818 255.23856 
L 119.284364 255.23856 
L 122.530909 255.23856 
L 125.777455 255.23856 
L 129.024 255.23856 
L 132.270545 255.23856 
L 135.517091 255.23856 
L 138.763636 255.23856 
L 142.010182 255.23856 
L 145.256727 255.23856 
L 148.503273 255.23856 
L 151.749818 255.23856 
L 154.996364 222.3072 
L 158.242909 222.3072 
L 161.489455 222.3072 
L 164.736 222.3072 
L 167.982545 222.3072 
L 171.229091 222.3072 
L 174.475636 222.3072 
L 177.722182 222.3072 
L 180.968727 222.3072 
L 184.215273 222.3072 
L 187.461818 222.3072 
L 190.708364 222.3072 
L 193.954909 222.3072 
L 197.201455 189.37584 
L 200.448 189.37584 
L 203.694545 189.37584 
L 206.941091 189.37584 
L 210.187636 189.37584 
L 213.434182 189.37584 
L 216.680727 189.37584 
L 219.927273 189.37584 
L 223.173818 189.37584 
L 226.420364 189.37584 
L 229.666909 189.37584 
L 232.913455 189.37584 
L 236.16 156.44448 
L 239.406545 156.44448 
L 242.653091 156.44448 
L 245.899636 156.44448 
L 249.146182 156.44448 
L 252.392727 156.44448 
L 255.639273 156.44448 
L 258.885818 156.44448 
L 262.132364 156.44448 
L 265.378909 156.44448 
L 268.625455 156.44448 
L 271.872 156.44448 
L 275.118545 156.44448 
L 278.365091 129.50064 
L 281.611636 129.50064 
L 284.858182 129.50064 
L 288.104727 129.50064 
L 291.351273 129.50064 
L 294.597818 129.50064 
L 297.844364 129.50064 
L 301.090909 129.50064 
L 304.337455 129.50064 
L 307.584 129.50064 
L 310.830545 129.50064 
L 314.077091 129.50064 
L 317.323636 102.5568 
L 320.570182 102.5568 
L 323.816727 102.5568 
L 327.063273 102.5568 
L 330.309818 102.5568 
L 333.556364 102.5568 
L 336.802909 102.5568 
L 340.049455 102.5568 
L 343.296 102.5568 
L 346.542545 102.5568 
L 349.789091 102.5568 
L 353.035636 102.5568 
L 356.282182 102.5568 
L 359.528727 75.61296 
L 362.775273 75.61296 
L 366.021818 75.61296 
L 369.268364 75.61296 
L 372.514909 75.61296 
L 375.761455 75.61296 
L 379.008 75.61296 
L 382.254545 75.61296 
L 385.501091 75.61296 
L 388.747636 75.61296 
L 391.994182 75.61296 
L 395.240727 75.61296 
L 398.487273 53.568 
" style="fill:none;stroke:#2ca02c;stroke-linecap:square;stroke-width:1.5;"/>
   </g>
   <g id="line2d_16">
    <path clip-path="url(#p872919db31)" d="M 73.832727 295.488 
L 77.079273 295.488 
L 80.325818 295.488 
L 83.572364 295.488 
L 86.818909 295.488 
L 90.065455 295.488 
L 93.312 295.488 
L 96.558545 273.350808 
L 99.805091 273.350808 
L 103.051636 273.350808 
L 106.298182 273.350808 
L 109.544727 273.350808 
L 112.791273 273.350808 
L 116.037818 255.23856 
L 119.284364 255.23856 
L 122.530909 255.23856 
L 125.777455 255.23856 
L 129.024 255.23856 
L 132.270545 255.23856 
L 135.517091 237.126312 
L 138.763636 237.126312 
L 142.010182 237.126312 
L 145.256727 237.126312 
L 148.503273 237.126312 
L 151.749818 237.126312 
L 154.996364 219.014064 
L 158.242909 219.014064 
L 161.489455 219.014064 
L 164.736 219.014064 
L 167.982545 219.014064 
L 171.229091 219.014064 
L 174.475636 219.014064 
L 177.722182 200.901816 
L 180.968727 200.901816 
L 184.215273 200.901816 
L 187.461818 200.901816 
L 190.708364 200.901816 
L 193.954909 200.901816 
L 197.201455 186.082704 
L 200.448 186.082704 
L 203.694545 186.082704 
L 206.941091 186.082704 
L 210.187636 186.082704 
L 213.434182 186.082704 
L 216.680727 171.263592 
L 219.927273 171.263592 
L 223.173818 171.263592 
L 226.420364 171.263592 
L 229.666909 171.263592 
L 232.913455 171.263592 
L 236.16 156.44448 
L 239.406545 156.44448 
L 242.653091 156.44448 
L 245.899636 156.44448 
L 249.146182 156.44448 
L 252.392727 156.44448 
L 255.639273 156.44448 
L 258.885818 141.625368 
L 262.132364 141.625368 
L 265.378909 141.625368 
L 268.625455 141.625368 
L 271.872 141.625368 
L 275.118545 141.625368 
L 278.365091 126.806256 
L 281.611636 126.806256 
L 284.858182 126.806256 
L 288.104727 126.806256 
L 291.351273 126.806256 
L 294.597818 126.806256 
L 297.844364 111.987144 
L 301.090909 111.987144 
L 304.337455 111.987144 
L 307.584 111.987144 
L 310.830545 111.987144 
L 314.077091 111.987144 
L 317.323636 99.862416 
L 320.570182 99.862416 
L 323.816727 99.862416 
L 327.063273 99.862416 
L 330.309818 99.862416 
L 333.556364 99.862416 
L 336.802909 99.862416 
L 340.049455 87.737688 
L 343.296 87.737688 
L 346.542545 87.737688 
L 349.789091 87.737688 
L 353.035636 87.737688 
L 356.282182 87.737688 
L 359.528727 75.61296 
L 362.775273 75.61296 
L 366.021818 75.61296 
L 369.268364 75.61296 
L 372.514909 75.61296 
L 375.761455 75.61296 
L 379.008 63.488232 
L 382.254545 63.488232 
L 385.501091 63.488232 
L 388.747636 63.488232 
L 391.994182 63.488232 
L 395.240727 63.488232 
L 398.487273 53.568 
" style="fill:none;stroke:#d62728;stroke-linecap:square;stroke-width:1.5;"/>
   </g>
   <g id="line2d_17">
    <path clip-path="url(#p872919db31)" d="M 73.832727 295.488 
L 77.079273 295.488 
L 80.325818 295.488 
L 83.572364 295.488 
L 86.818909 283.312544 
L 90.065455 283.312544 
L 93.312 283.312544 
L 96.558545 273.350808 
L 99.805091 273.350808 
L 103.051636 273.350808 
L 106.298182 263.389072 
L 109.544727 263.389072 
L 112.791273 263.389072 
L 116.037818 253.427335 
L 119.284364 253.427335 
L 122.530909 253.427335 
L 125.777455 243.465599 
L 129.024 243.465599 
L 132.270545 243.465599 
L 135.517091 235.315087 
L 138.763636 233.503862 
L 142.010182 233.503862 
L 145.256727 227.164576 
L 148.503273 225.353351 
L 151.749818 225.353351 
L 154.996364 219.014064 
L 158.242909 217.202839 
L 161.489455 217.202839 
L 164.736 217.202839 
L 167.982545 209.052328 
L 171.229091 209.052328 
L 174.475636 209.052328 
L 177.722182 200.901816 
L 180.968727 200.901816 
L 184.215273 200.901816 
L 187.461818 192.751304 
L 190.708364 192.751304 
L 193.954909 192.751304 
L 197.201455 184.600793 
L 200.448 184.600793 
L 203.694545 184.600793 
L 206.941091 176.450281 
L 210.187636 176.450281 
L 213.434182 176.450281 
L 216.680727 168.29977 
L 219.927273 168.29977 
L 223.173818 168.29977 
L 226.420364 160.149258 
L 229.666909 160.149258 
L 232.913455 160.149258 
L 236.16 153.480658 
L 239.406545 151.998746 
L 242.653091 151.998746 
L 245.899636 151.998746 
L 249.146182 145.330146 
L 252.392727 145.330146 
L 255.639273 145.330146 
L 258.885818 138.661546 
L 262.132364 138.661546 
L 265.378909 138.661546 
L 268.625455 131.992945 
L 271.872 131.992945 
L 275.118545 131.992945 
L 278.365091 125.324345 
L 281.611636 125.324345 
L 284.858182 125.324345 
L 288.104727 118.655744 
L 291.351273 118.655744 
L 294.597818 118.655744 
L 297.844364 111.987144 
L 301.090909 111.987144 
L 304.337455 111.987144 
L 307.584 105.318544 
L 310.830545 105.318544 
L 314.077091 105.318544 
L 317.323636 99.862416 
L 320.570182 98.649943 
L 323.816727 98.649943 
L 327.063273 98.649943 
L 330.309818 91.981343 
L 333.556364 91.981343 
L 336.802909 91.981343 
L 340.049455 85.312742 
L 343.296 85.312742 
L 346.542545 85.312742 
L 349.789091 79.856615 
L 353.035636 79.856615 
L 356.282182 79.856615 
L 359.528727 74.400487 
L 362.775273 74.400487 
L 366.021818 74.400487 
L 369.268364 68.94436 
L 372.514909 68.94436 
L 375.761455 68.94436 
L 379.008 63.488232 
L 382.254545 63.488232 
L 385.501091 63.488232 
L 388.747636 58.032104 
L 391.994182 58.032104 
L 395.240727 58.032104 
L 398.487273 53.568 
" style="fill:none;stroke:#9467bd;stroke-linecap:square;stroke-width:1.5;"/>
   </g>
   <g id="line2d_18">
    <path clip-path="url(#p872919db31)" d="M 73.832727 295.488 
L 77.079273 295.488 
L 80.325818 288.791499 
L 83.572364 288.791499 
L 86.818909 283.312544 
L 90.065455 277.833589 
L 93.312 277.833589 
L 96.558545 272.354634 
L 99.805091 266.875679 
L 103.051636 266.875679 
L 106.298182 261.396724 
L 109.544727 257.910117 
L 112.791273 255.917769 
L 116.037818 252.431162 
L 119.284364 251.434988 
L 122.530909 246.952207 
L 125.777455 243.465599 
L 129.024 242.469425 
L 132.270545 237.986644 
L 135.517091 234.500036 
L 138.763636 233.503862 
L 142.010182 229.021081 
L 145.256727 225.534473 
L 148.503273 224.5383 
L 151.749818 220.055518 
L 154.996364 217.383962 
L 158.242909 215.572737 
L 161.489455 211.089955 
L 164.736 211.089955 
L 167.982545 206.607174 
L 171.229091 202.124393 
L 174.475636 202.124393 
L 177.722182 197.641611 
L 180.968727 193.973881 
L 184.215273 193.15883 
L 187.461818 189.4911 
L 190.708364 186.638421 
L 193.954909 185.008318 
L 197.201455 182.155639 
L 200.448 181.340588 
L 203.694545 177.672858 
L 206.941091 174.820179 
L 210.187636 174.005128 
L 213.434182 170.337397 
L 216.680727 167.484718 
L 219.927273 166.669667 
L 223.173818 163.001937 
L 226.420364 160.149258 
L 229.666909 159.334207 
L 232.913455 155.666477 
L 236.16 153.480658 
L 239.406545 151.998746 
L 242.653091 148.331016 
L 245.899636 148.331016 
L 249.146182 144.663286 
L 252.392727 140.995556 
L 255.639273 140.995556 
L 258.885818 137.327826 
L 262.132364 133.660095 
L 265.378909 133.660095 
L 268.625455 129.992365 
L 271.872 126.991495 
L 275.118545 126.324635 
L 278.365091 122.656905 
L 281.611636 122.656905 
L 284.858182 118.989174 
L 288.104727 115.988304 
L 291.351273 115.321444 
L 294.597818 112.320574 
L 297.844364 109.986564 
L 301.090909 109.319704 
L 304.337455 106.318834 
L 307.584 103.984824 
L 310.830545 103.317963 
L 314.077091 100.317093 
L 317.323636 98.528696 
L 320.570182 97.316223 
L 323.816727 94.315353 
L 327.063273 94.315353 
L 330.309818 91.314483 
L 333.556364 88.313613 
L 336.802909 88.313613 
L 340.049455 85.312742 
L 343.296 82.311872 
L 346.542545 82.311872 
L 349.789091 79.311002 
L 353.035636 76.855745 
L 356.282182 76.310132 
L 359.528727 73.309262 
L 362.775273 73.309262 
L 366.021818 70.308392 
L 369.268364 67.853134 
L 372.514909 67.853134 
L 375.761455 65.397877 
L 379.008 62.942619 
L 382.254545 62.942619 
L 385.501091 60.487362 
L 388.747636 58.032104 
L 391.994182 58.032104 
L 395.240727 55.576847 
L 398.487273 53.568 
" style="fill:none;stroke:#8c564b;stroke-linecap:square;stroke-width:1.5;"/>
   </g>
   <g id="line2d_19">
    <path clip-path="url(#p872919db31)" d="M 73.832727 295.488 
L 77.079273 288.870587 
L 80.325818 283.192713 
L 83.572364 278.08469 
L 86.818909 273.103797 
L 90.065455 268.428008 
L 93.312 264.093912 
L 96.558545 259.914527 
L 99.805091 255.824932 
L 103.051636 251.74658 
L 106.298182 247.683119 
L 109.544727 243.72597 
L 112.791273 239.940692 
L 116.037818 236.359594 
L 119.284364 232.912548 
L 122.530909 229.528224 
L 125.777455 226.174303 
L 129.024 222.830193 
L 132.270545 219.491165 
L 135.517091 216.156767 
L 138.763636 212.823472 
L 142.010182 209.509707 
L 145.256727 206.264226 
L 148.503273 203.11795 
L 151.749818 200.086842 
L 154.996364 197.162991 
L 158.242909 194.325828 
L 161.489455 191.532962 
L 164.736 188.76717 
L 167.982545 186.022737 
L 171.229091 183.285936 
L 174.475636 180.550604 
L 177.722182 177.818115 
L 180.968727 175.088833 
L 184.215273 172.361213 
L 187.461818 169.633912 
L 190.708364 166.918085 
L 193.954909 164.243687 
L 197.201455 161.638826 
L 200.448 159.100888 
L 203.694545 156.623179 
L 206.941091 154.205494 
L 210.187636 151.851854 
L 213.434182 149.5517 
L 216.680727 147.272153 
L 219.927273 145.010026 
L 223.173818 142.764522 
L 226.420364 140.524986 
L 229.666909 138.2865 
L 232.913455 136.049468 
L 236.16 133.815135 
L 239.406545 131.583004 
L 242.653091 129.351409 
L 245.899636 127.120291 
L 249.146182 124.909248 
L 252.392727 122.75017 
L 255.639273 120.649703 
L 258.885818 118.588881 
L 262.132364 116.565326 
L 265.378909 114.583689 
L 268.625455 112.650604 
L 271.872 110.760553 
L 275.118545 108.891692 
L 278.365091 107.037056 
L 281.611636 105.198073 
L 284.858182 103.365803 
L 288.104727 101.534651 
L 291.351273 99.7052 
L 294.597818 97.87799 
L 297.844364 96.052073 
L 301.090909 94.230296 
L 304.337455 92.436404 
L 307.584 90.69465 
L 310.830545 88.994239 
L 314.077091 87.32293 
L 317.323636 85.683709 
L 320.570182 84.083714 
L 323.816727 82.525427 
L 327.063273 80.993091 
L 330.309818 79.477314 
L 333.556364 77.974395 
L 336.802909 76.476336 
L 340.049455 74.98041 
L 343.296 73.489391 
L 346.542545 72.017281 
L 349.789091 70.589025 
L 353.035636 69.205129 
L 356.282182 67.852038 
L 359.528727 66.537684 
L 362.775273 65.268491 
L 366.021818 64.021177 
L 369.268364 62.792342 
L 372.514909 61.571454 
L 375.761455 60.379035 
L 379.008 59.250467 
L 382.254545 58.163036 
L 385.501091 57.117249 
L 388.747636 56.123561 
L 391.994182 55.175744 
L 395.240727 54.315729 
L 398.487273 53.568 
" style="fill:none;stroke:#e377c2;stroke-linecap:square;stroke-width:1.5;"/>
   </g>
   <g id="line2d_20">
    <path clip-path="url(#p872919db31)" d="M 73.832727 295.488 
L 77.079273 286.046538 
L 80.325818 278.088582 
L 83.572364 271.148 
L 86.818909 264.866016 
L 90.065455 259.081841 
L 93.312 253.580493 
L 96.558545 248.338061 
L 99.805091 243.402269 
L 103.051636 238.738571 
L 106.298182 234.195442 
L 109.544727 229.744291 
L 112.791273 225.42295 
L 116.037818 221.279854 
L 119.284364 217.334888 
L 122.530909 213.529508 
L 125.777455 209.802802 
L 129.024 206.112042 
L 132.270545 202.455824 
L 135.517091 198.869963 
L 138.763636 195.38886 
L 142.010182 192.023929 
L 145.256727 188.786052 
L 148.503273 185.657381 
L 151.749818 182.591255 
L 154.996364 179.556422 
L 158.242909 176.53462 
L 161.489455 173.527892 
L 164.736 170.550963 
L 167.982545 167.628559 
L 171.229091 164.778611 
L 174.475636 162.01481 
L 177.722182 159.341603 
L 180.968727 156.750976 
L 184.215273 154.218534 
L 187.461818 151.719908 
L 190.708364 149.237833 
L 193.954909 146.764372 
L 197.201455 144.298038 
L 200.448 141.845724 
L 203.694545 139.422606 
L 206.941091 137.047108 
L 210.187636 134.73232 
L 213.434182 132.484468 
L 216.680727 130.30281 
L 219.927273 128.179045 
L 223.173818 126.098845 
L 226.420364 124.047275 
L 229.666909 122.012044 
L 232.913455 119.985622 
L 236.16 117.964908 
L 239.406545 115.952195 
L 242.653091 113.956139 
L 245.899636 111.990012 
L 249.146182 110.067039 
L 252.392727 108.195117 
L 255.639273 106.375462 
L 258.885818 104.606386 
L 262.132364 102.88084 
L 265.378909 101.187547 
L 268.625455 99.514051 
L 271.872 97.851934 
L 275.118545 96.196048 
L 278.365091 94.546176 
L 281.611636 92.907506 
L 284.858182 91.291242 
L 288.104727 89.70947 
L 291.351273 88.170733 
L 294.597818 86.677005 
L 297.844364 85.228256 
L 301.090909 83.818187 
L 304.337455 82.434732 
L 307.584 81.067756 
L 310.830545 79.709301 
L 314.077091 78.358481 
L 317.323636 77.018666 
L 320.570182 75.700665 
L 323.816727 74.416459 
L 327.063273 73.173024 
L 330.309818 71.97093 
L 333.556364 70.80837 
L 336.802909 69.673192 
L 340.049455 68.554314 
L 343.296 67.446806 
L 346.542545 66.353268 
L 349.789091 65.285047 
L 353.035636 64.254143 
L 356.282182 63.26228 
L 359.528727 62.308978 
L 362.775273 61.38514 
L 366.021818 60.478787 
L 369.268364 59.598472 
L 372.514909 58.749782 
L 375.761455 57.944336 
L 379.008 57.182092 
L 382.254545 56.448991 
L 385.501091 55.758218 
L 388.747636 55.115615 
L 391.994182 54.527644 
L 395.240727 54.009533 
L 398.487273 53.568 
" style="fill:none;stroke:#7f7f7f;stroke-linecap:square;stroke-width:1.5;"/>
   </g>
   <g id="line2d_21">
    <path clip-path="url(#p872919db31)" d="M 73.832727 295.488 
L 77.079273 283.567039 
L 80.325818 273.59333 
L 83.572364 265.054043 
L 86.818909 257.526025 
L 90.065455 250.743515 
L 93.312 244.468822 
L 96.558545 238.535366 
L 99.805091 232.99477 
L 103.051636 227.747525 
L 106.298182 222.739761 
L 109.544727 217.924487 
L 112.791273 213.327291 
L 116.037818 208.930741 
L 119.284364 204.706229 
L 122.530909 200.603939 
L 125.777455 196.592629 
L 129.024 192.709494 
L 132.270545 188.979188 
L 135.517091 185.393235 
L 138.763636 181.919537 
L 142.010182 178.524328 
L 145.256727 175.188437 
L 148.503273 171.90525 
L 151.749818 168.698087 
L 154.996364 165.595521 
L 158.242909 162.600301 
L 161.489455 159.703308 
L 164.736 156.880367 
L 167.982545 154.110471 
L 171.229091 151.373995 
L 174.475636 148.667073 
L 177.722182 146.002562 
L 180.968727 143.4003 
L 184.215273 140.874748 
L 187.461818 138.428048 
L 190.708364 136.055261 
L 193.954909 133.740544 
L 197.201455 131.466544 
L 200.448 129.218833 
L 203.694545 126.9904 
L 206.941091 124.785936 
L 210.187636 122.617478 
L 213.434182 120.499627 
L 216.680727 118.441954 
L 219.927273 116.446685 
L 223.173818 114.507601 
L 226.420364 112.613445 
L 229.666909 110.751397 
L 232.913455 108.910352 
L 236.16 107.084666 
L 239.406545 105.276267 
L 242.653091 103.493818 
L 245.899636 101.748908 
L 249.146182 100.050681 
L 252.392727 98.402595 
L 255.639273 96.801942 
L 258.885818 95.241438 
L 262.132364 93.711272 
L 265.378909 92.20127 
L 268.625455 90.705049 
L 271.872 89.223007 
L 275.118545 87.761651 
L 278.365091 86.3313 
L 281.611636 84.940261 
L 284.858182 83.591384 
L 288.104727 82.282562 
L 291.351273 81.008174 
L 294.597818 79.758753 
L 297.844364 78.526976 
L 301.090909 77.308799 
L 304.337455 76.105727 
L 307.584 74.92727 
L 310.830545 73.782416 
L 314.077091 72.674576 
L 317.323636 71.601464 
L 320.570182 70.559311 
L 323.816727 69.540656 
L 327.063273 68.538128 
L 330.309818 67.551279 
L 333.556364 66.588026 
L 336.802909 65.657212 
L 340.049455 64.758005 
L 343.296 63.88958 
L 346.542545 63.048051 
L 349.789091 62.227727 
L 353.035636 61.4268 
L 356.282182 60.652929 
L 359.528727 59.91378 
L 362.775273 59.206048 
L 366.021818 58.522429 
L 369.268364 57.864833 
L 372.514909 57.236773 
L 375.761455 56.644833 
L 379.008 56.085282 
L 382.254545 55.557597 
L 385.501091 55.065503 
L 388.747636 54.615516 
L 391.994182 54.213581 
L 395.240727 53.863878 
L 398.487273 53.568 
" style="fill:none;stroke:#bcbd22;stroke-linecap:square;stroke-width:1.5;"/>
   </g>
   <g id="line2d_22">
    <path clip-path="url(#p872919db31)" d="M 73.832727 295.488 
L 77.079273 281.291995 
L 80.325818 269.476441 
L 83.572364 259.453494 
L 86.818909 250.759813 
L 90.065455 243.058709 
L 93.312 236.086627 
L 96.558545 229.64127 
L 99.805091 223.598497 
L 103.051636 217.930665 
L 106.298182 212.55341 
L 109.544727 207.476144 
L 112.791273 202.659147 
L 116.037818 198.057193 
L 119.284364 193.633855 
L 122.530909 189.371543 
L 125.777455 185.290832 
L 129.024 181.382856 
L 132.270545 177.602858 
L 135.517091 173.931015 
L 138.763636 170.373236 
L 142.010182 166.931637 
L 145.256727 163.616193 
L 148.503273 160.419904 
L 151.749818 157.31546 
L 154.996364 154.278252 
L 158.242909 151.306465 
L 161.489455 148.412959 
L 164.736 145.606392 
L 167.982545 142.890017 
L 171.229091 140.261758 
L 174.475636 137.704787 
L 177.722182 135.200331 
L 180.968727 132.738999 
L 184.215273 130.326176 
L 187.461818 127.970685 
L 190.708364 125.681759 
L 193.954909 123.463303 
L 197.201455 121.310646 
L 200.448 119.211681 
L 203.694545 117.1539 
L 206.941091 115.130131 
L 210.187636 113.140134 
L 213.434182 111.189365 
L 216.680727 109.285532 
L 219.927273 107.434355 
L 223.173818 105.636281 
L 226.420364 103.886443 
L 229.666909 102.176508 
L 232.913455 100.49834 
L 236.16 98.846994 
L 239.406545 97.222871 
L 242.653091 95.630325 
L 245.899636 94.075796 
L 249.146182 92.563615 
L 252.392727 91.094552 
L 255.639273 89.664908 
L 258.885818 88.268188 
L 262.132364 86.897534 
L 265.378909 85.549066 
L 268.625455 84.223386 
L 271.872 82.925338 
L 275.118545 81.660313 
L 278.365091 80.431978 
L 281.611636 79.240563 
L 284.858182 78.082303 
L 288.104727 76.950247 
L 291.351273 75.838857 
L 294.597818 74.747301 
L 297.844364 73.678444 
L 301.090909 72.637407 
L 304.337455 71.6283 
L 307.584 70.652502 
L 310.830545 69.706387 
L 314.077091 68.783078 
L 317.323636 67.879757 
L 320.570182 66.996599 
L 323.816727 66.135755 
L 327.063273 65.302462 
L 330.309818 64.498879 
L 333.556364 63.723665 
L 336.802909 62.970853 
L 340.049455 62.238157 
L 343.296 61.528402 
L 346.542545 60.843179 
L 349.789091 60.185801 
L 353.035636 59.556033 
L 356.282182 58.947814 
L 359.528727 58.362056 
L 362.775273 57.801325 
L 366.021818 57.268781 
L 369.268364 56.763412 
L 372.514909 56.283805 
L 375.761455 55.831289 
L 379.008 55.407083 
L 382.254545 55.010301 
L 385.501091 54.646144 
L 388.747636 54.318194 
L 391.994182 54.028624 
L 395.240727 53.778606 
L 398.487273 53.568 
" style="fill:none;stroke:#17becf;stroke-linecap:square;stroke-width:1.5;"/>
   </g>
   <g id="line2d_23">
    <path clip-path="url(#p872919db31)" d="M 73.832727 295.488 
L 77.079273 279.179029 
L 80.325818 265.649583 
L 83.572364 254.245891 
L 86.818909 244.457739 
L 90.065455 235.898613 
L 93.312 228.266929 
L 96.558545 221.336058 
L 99.805091 214.938595 
L 103.051636 208.937183 
L 106.298182 203.318414 
L 109.544727 198.017652 
L 112.791273 193.010584 
L 116.037818 188.249252 
L 119.284364 183.734911 
L 122.530909 179.431093 
L 125.777455 175.304891 
L 129.024 171.343499 
L 132.270545 167.527291 
L 135.517091 163.87251 
L 138.763636 160.359335 
L 142.010182 156.95873 
L 145.256727 153.672801 
L 148.503273 150.494971 
L 151.749818 147.428107 
L 154.996364 144.473287 
L 158.242909 141.614668 
L 161.489455 138.837358 
L 164.736 136.133829 
L 167.982545 133.506083 
L 171.229091 130.957877 
L 174.475636 128.488591 
L 177.722182 126.096057 
L 180.968727 123.771298 
L 184.215273 121.503901 
L 187.461818 119.287656 
L 190.708364 117.126879 
L 193.954909 115.025674 
L 197.201455 112.987196 
L 200.448 111.010735 
L 203.694545 109.090077 
L 206.941091 107.215869 
L 210.187636 105.381377 
L 213.434182 103.585961 
L 216.680727 101.833064 
L 219.927273 100.127617 
L 223.173818 98.472602 
L 226.420364 96.866605 
L 229.666909 95.303741 
L 232.913455 93.776814 
L 236.16 92.280854 
L 239.406545 90.815533 
L 242.653091 89.384055 
L 245.899636 87.990897 
L 249.146182 86.638647 
L 252.392727 85.326371 
L 255.639273 84.049718 
L 258.885818 82.802846 
L 262.132364 81.581857 
L 265.378909 80.386743 
L 268.625455 79.220013 
L 271.872 78.085302 
L 275.118545 76.984588 
L 278.365091 75.917262 
L 281.611636 74.879324 
L 284.858182 73.866426 
L 288.104727 72.876613 
L 291.351273 71.910144 
L 294.597818 70.969304 
L 297.844364 70.056737 
L 301.090909 69.173166 
L 304.337455 68.31654 
L 307.584 67.4827 
L 310.830545 66.670645 
L 314.077091 65.880337 
L 317.323636 65.114042 
L 320.570182 64.373005 
L 323.816727 63.657975 
L 327.063273 62.967686 
L 330.309818 62.298152 
L 333.556364 61.649873 
L 336.802909 61.024495 
L 340.049455 60.421662 
L 343.296 59.843254 
L 346.542545 59.287619 
L 349.789091 58.751088 
L 353.035636 58.236749 
L 356.282182 57.745118 
L 359.528727 57.27708 
L 362.775273 56.832132 
L 366.021818 56.409217 
L 369.268364 56.010058 
L 372.514909 55.634037 
L 375.761455 55.281243 
L 379.008 54.951005 
L 382.254545 54.646805 
L 385.501091 54.370801 
L 388.747636 54.124613 
L 391.994182 53.908923 
L 395.240727 53.723629 
L 398.487273 53.568 
" style="fill:none;stroke:#1f77b4;stroke-linecap:square;stroke-width:1.5;"/>
   </g>
   <g id="line2d_24">
    <path clip-path="url(#p872919db31)" d="M 73.832727 295.488 
L 77.079273 270.502249 
L 80.325818 249.926705 
L 83.572364 232.851771 
L 86.818909 218.554346 
L 90.065455 206.46054 
L 93.312 196.115816 
L 96.558545 187.160859 
L 99.805091 179.312203 
L 103.051636 172.346794 
L 106.298182 166.089382 
L 109.544727 160.402757 
L 112.791273 155.179678 
L 116.037818 150.33663 
L 119.284364 145.80891 
L 122.530909 141.567193 
L 125.777455 137.584013 
L 129.024 133.840017 
L 132.270545 130.310248 
L 135.517091 126.980449 
L 138.763636 123.829773 
L 142.010182 120.846809 
L 145.256727 118.015125 
L 148.503273 115.32482 
L 151.749818 112.763271 
L 154.996364 110.321847 
L 158.242909 107.990951 
L 161.489455 105.763445 
L 164.736 103.631279 
L 167.982545 101.589159 
L 171.229091 99.629794 
L 174.475636 97.750086 
L 177.722182 95.943183 
L 180.968727 94.206724 
L 184.215273 92.538064 
L 187.461818 90.932491 
L 190.708364 89.388543 
L 193.954909 87.903081 
L 197.201455 86.472883 
L 200.448 85.096105 
L 203.694545 83.770058 
L 206.941091 82.492721 
L 210.187636 81.2623 
L 213.434182 80.07658 
L 216.680727 78.933706 
L 219.927273 77.831892 
L 223.173818 76.769499 
L 226.420364 75.745162 
L 229.666909 74.757477 
L 232.913455 73.804997 
L 236.16 72.886294 
L 239.406545 72.00008 
L 242.653091 71.14524 
L 245.899636 70.320749 
L 249.146182 69.52565 
L 252.392727 68.758853 
L 255.639273 68.019304 
L 258.885818 67.30608 
L 262.132364 66.618304 
L 265.378909 65.955288 
L 268.625455 65.316269 
L 271.872 64.700404 
L 275.118545 64.106997 
L 278.365091 63.535196 
L 281.611636 62.984438 
L 284.858182 62.454241 
L 288.104727 61.943741 
L 291.351273 61.452575 
L 294.597818 60.980084 
L 297.844364 60.525417 
L 301.090909 60.088573 
L 304.337455 59.668674 
L 307.584 59.265154 
L 310.830545 58.878086 
L 314.077091 58.506798 
L 317.323636 58.151392 
L 320.570182 57.811286 
L 323.816727 57.48645 
L 327.063273 57.176347 
L 330.309818 56.880916 
L 333.556364 56.59963 
L 336.802909 56.332445 
L 340.049455 56.078745 
L 343.296 55.838511 
L 346.542545 55.611106 
L 349.789091 55.39651 
L 353.035636 55.194076 
L 356.282182 55.0037 
L 359.528727 54.824848 
L 362.775273 54.657246 
L 366.021818 54.500552 
L 369.268364 54.355354 
L 372.514909 54.222021 
L 375.761455 54.100721 
L 379.008 53.99143 
L 382.254545 53.893959 
L 385.501091 53.807966 
L 388.747636 53.732986 
L 391.994182 53.668446 
L 395.240727 53.613689 
L 398.487273 53.568 
" style="fill:none;stroke:#ff7f0e;stroke-linecap:square;stroke-width:1.5;"/>
   </g>
   <g id="line2d_25">
    <path clip-path="url(#p872919db31)" d="M 73.832727 295.488 
L 77.079273 260.029321 
L 80.325818 230.953472 
L 83.572364 207.047857 
L 86.818909 187.330629 
L 90.065455 171.007161 
L 93.312 157.434655 
L 96.558545 146.093381 
L 99.805091 136.563314 
L 103.051636 128.505162 
L 106.298182 121.644971 
L 109.544727 115.761623 
L 112.791273 110.676719 
L 116.037818 106.246356 
L 119.284364 102.354487 
L 122.530909 98.907525 
L 125.777455 95.830003 
L 129.024 93.061027 
L 132.270545 90.551455 
L 135.517091 88.261567 
L 138.763636 86.15924 
L 142.010182 84.218426 
L 145.256727 82.417978 
L 148.503273 80.740669 
L 151.749818 79.172438 
L 154.996364 77.704548 
L 158.242909 76.329426 
L 161.489455 75.040475 
L 164.736 73.830842 
L 167.982545 72.695259 
L 171.229091 71.627825 
L 174.475636 70.624134 
L 177.722182 69.679248 
L 180.968727 68.789387 
L 184.215273 67.950478 
L 187.461818 67.159234 
L 190.708364 66.412302 
L 193.954909 65.706836 
L 197.201455 65.040061 
L 200.448 64.409513 
L 203.694545 63.81288 
L 206.941091 63.248045 
L 210.187636 62.713062 
L 213.434182 62.206114 
L 216.680727 61.725547 
L 219.927273 61.269812 
L 223.173818 60.83749 
L 226.420364 60.427253 
L 229.666909 60.037879 
L 232.913455 59.668228 
L 236.16 59.317241 
L 239.406545 58.983934 
L 242.653091 58.667385 
L 245.899636 58.366739 
L 249.146182 58.081192 
L 252.392727 57.809993 
L 255.639273 57.552438 
L 258.885818 57.307865 
L 262.132364 57.075655 
L 265.378909 56.855218 
L 268.625455 56.646007 
L 271.872 56.447493 
L 275.118545 56.259192 
L 278.365091 56.080625 
L 281.611636 55.911362 
L 284.858182 55.750967 
L 288.104727 55.599057 
L 291.351273 55.45523 
L 294.597818 55.319146 
L 297.844364 55.190433 
L 301.090909 55.068785 
L 304.337455 54.953863 
L 307.584 54.845381 
L 310.830545 54.743036 
L 314.077091 54.646557 
L 317.323636 54.555678 
L 320.570182 54.47013 
L 323.816727 54.389696 
L 327.063273 54.314092 
L 330.309818 54.24316 
L 333.556364 54.176588 
L 336.802909 54.114288 
L 340.049455 54.055905 
L 343.296 54.001434 
L 346.542545 53.950843 
L 349.789091 53.904076 
L 353.035636 53.861047 
L 356.282182 53.821652 
L 359.528727 53.785763 
L 362.775273 53.753237 
L 366.021818 53.723918 
L 369.268364 53.697637 
L 372.514909 53.674218 
L 375.761455 53.653479 
L 379.008 53.635236 
L 382.254545 53.619303 
L 385.501091 53.605497 
L 388.747636 53.593636 
L 391.994182 53.583545 
L 395.240727 53.575054 
L 398.487273 53.568 
" style="fill:none;stroke:#2ca02c;stroke-linecap:square;stroke-width:1.5;"/>
   </g>
   <g id="line2d_26">
    <path clip-path="url(#p872919db31)" d="M 73.832727 295.488 
L 77.079273 255.133072 
L 80.325818 222.086585 
L 83.572364 194.996369 
L 86.818909 172.760748 
L 90.065455 154.482288 
L 93.312 139.430063 
L 96.558545 127.008859 
L 99.805091 116.734053 
L 103.051636 108.211124 
L 106.298182 101.118945 
L 109.544727 95.196154 
L 112.791273 90.230051 
L 116.037818 86.047544 
L 119.284364 82.507775 
L 122.530909 79.496107 
L 125.777455 76.919235 
L 129.024 74.701196 
L 132.270545 72.780129 
L 135.517091 71.105632 
L 138.763636 69.636616 
L 142.010182 68.339558 
L 145.256727 67.187079 
L 148.503273 66.156791 
L 151.749818 65.230357 
L 154.996364 64.392733 
L 158.242909 63.631545 
L 161.489455 62.936589 
L 164.736 62.299422 
L 167.982545 61.713034 
L 171.229091 61.171578 
L 174.475636 60.670153 
L 177.722182 60.204629 
L 180.968727 59.771507 
L 184.215273 59.367801 
L 187.461818 58.990948 
L 190.708364 58.638715 
L 193.954909 58.309153 
L 197.201455 58.00089 
L 200.448 57.712356 
L 203.694545 57.442311 
L 206.941091 57.18946 
L 210.187636 56.952684 
L 213.434182 56.730901 
L 216.680727 56.52312 
L 219.927273 56.328423 
L 223.173818 56.145947 
L 226.420364 55.974902 
L 229.666909 55.81454 
L 232.913455 55.664178 
L 236.16 55.523171 
L 239.406545 55.390924 
L 242.653091 55.266879 
L 245.899636 55.150521 
L 249.146182 55.041367 
L 252.392727 54.938966 
L 255.639273 54.8429 
L 258.885818 54.752776 
L 262.132364 54.668231 
L 265.378909 54.588921 
L 268.625455 54.51453 
L 271.872 54.444758 
L 275.118545 54.379327 
L 278.365091 54.317976 
L 281.611636 54.260458 
L 284.858182 54.20655 
L 288.104727 54.156028 
L 291.351273 54.108702 
L 294.597818 54.064371 
L 297.844364 54.022869 
L 301.090909 53.984019 
L 304.337455 53.947671 
L 307.584 53.913677 
L 310.830545 53.881939 
L 314.077091 53.852364 
L 317.323636 53.82486 
L 320.570182 53.799337 
L 323.816727 53.775707 
L 327.063273 53.753881 
L 330.309818 53.733773 
L 333.556364 53.715294 
L 336.802909 53.698361 
L 340.049455 53.682888 
L 343.296 53.668791 
L 346.542545 53.655988 
L 349.789091 53.644398 
L 353.035636 53.633941 
L 356.282182 53.624539 
L 359.528727 53.616119 
L 362.775273 53.608607 
L 366.021818 53.601933 
L 369.268364 53.596029 
L 372.514909 53.590832 
L 375.761455 53.58628 
L 379.008 53.582315 
L 382.254545 53.578882 
L 385.501091 53.575929 
L 388.747636 53.573408 
L 391.994182 53.571274 
L 395.240727 53.569484 
L 398.487273 53.568 
" style="fill:none;stroke:#d62728;stroke-linecap:square;stroke-width:1.5;"/>
   </g>
   <g id="line2d_27">
    <path clip-path="url(#p872919db31)" d="M 73.832727 295.488 
L 77.079273 252.991897 
L 80.325818 218.210128 
L 83.572364 189.730176 
L 86.818909 166.398324 
L 90.065455 147.272304 
L 93.312 131.582593 
L 96.558545 118.700789 
L 99.805091 108.113758 
L 103.051636 99.402513 
L 106.298182 92.224962 
L 109.544727 86.301797 
L 112.791273 81.404982 
L 116.037818 77.348343 
L 119.284364 73.979876 
L 122.530909 71.175475 
L 125.777455 68.833801 
L 129.024 66.8721 
L 132.270545 65.222782 
L 135.517091 63.83063 
L 138.763636 62.650527 
L 142.010182 61.645592 
L 145.256727 60.785664 
L 148.503273 60.046067 
L 151.749818 59.406596 
L 154.996364 58.850696 
L 158.242909 58.364788 
L 161.489455 57.937723 
L 164.736 57.560333 
L 167.982545 57.22507 
L 171.229091 56.925702 
L 174.475636 56.657081 
L 177.722182 56.414937 
L 180.968727 56.19572 
L 184.215273 55.996472 
L 187.461818 55.814716 
L 190.708364 55.64837 
L 193.954909 55.495678 
L 197.201455 55.355152 
L 200.448 55.225522 
L 203.694545 55.105699 
L 206.941091 54.994748 
L 210.187636 54.891855 
L 213.434182 54.796313 
L 216.680727 54.707499 
L 219.927273 54.624865 
L 223.173818 54.547926 
L 226.420364 54.476246 
L 229.666909 54.409436 
L 232.913455 54.347144 
L 236.16 54.289054 
L 239.406545 54.234874 
L 242.653091 54.184342 
L 245.899636 54.137214 
L 249.146182 54.093268 
L 252.392727 54.052298 
L 255.639273 54.014116 
L 258.885818 53.978544 
L 262.132364 53.945418 
L 265.378909 53.914588 
L 268.625455 53.88591 
L 271.872 53.859253 
L 275.118545 53.834491 
L 278.365091 53.811508 
L 281.611636 53.790195 
L 284.858182 53.770449 
L 288.104727 53.752173 
L 291.351273 53.735275 
L 294.597818 53.719671 
L 297.844364 53.705277 
L 301.090909 53.692018 
L 304.337455 53.67982 
L 307.584 53.668614 
L 310.830545 53.658336 
L 314.077091 53.648923 
L 317.323636 53.640316 
L 320.570182 53.632461 
L 323.816727 53.625304 
L 327.063273 53.618796 
L 330.309818 53.612889 
L 333.556364 53.60754 
L 336.802909 53.602706 
L 340.049455 53.598348 
L 343.296 53.594427 
L 346.542545 53.590909 
L 349.789091 53.587762 
L 353.035636 53.584952 
L 356.282182 53.582453 
L 359.528727 53.580236 
L 362.775273 53.578276 
L 366.021818 53.576549 
L 369.268364 53.575034 
L 372.514909 53.573709 
L 375.761455 53.572557 
L 379.008 53.571558 
L 382.254545 53.570699 
L 385.501091 53.569963 
L 388.747636 53.569337 
L 391.994182 53.568808 
L 395.240727 53.568366 
L 398.487273 53.568 
" style="fill:none;stroke:#9467bd;stroke-linecap:square;stroke-width:1.5;"/>
   </g>
   <g id="line2d_28">
    <path clip-path="url(#p872919db31)" d="M 73.832727 295.488 
L 77.079273 252.096977 
L 80.325818 216.590203 
L 83.572364 187.530107 
L 86.818909 163.741308 
L 90.065455 144.262823 
L 93.312 128.308984 
L 96.558545 115.237466 
L 99.805091 104.523151 
L 103.051636 95.73675 
L 106.298182 88.527318 
L 109.544727 82.607963 
L 112.791273 77.744155 
L 116.037818 73.744172 
L 119.284364 70.451282 
L 122.530909 67.737357 
L 125.777455 65.497648 
L 129.024 63.646516 
L 132.270545 62.113941 
L 135.517091 60.842668 
L 138.763636 59.785874 
L 142.010182 58.905265 
L 145.256727 58.169512 
L 148.503273 57.552982 
L 151.749818 57.034697 
L 154.996364 56.597481 
L 158.242909 56.227266 
L 161.489455 55.912525 
L 164.736 55.643809 
L 167.982545 55.413365 
L 171.229091 55.214826 
L 174.475636 55.042962 
L 177.722182 54.89347 
L 180.968727 54.762807 
L 184.215273 54.648049 
L 187.461818 54.546781 
L 190.708364 54.457006 
L 193.954909 54.377066 
L 197.201455 54.305583 
L 200.448 54.241409 
L 203.694545 54.183583 
L 206.941091 54.131301 
L 210.187636 54.083885 
L 213.434182 54.040761 
L 216.680727 54.001444 
L 219.927273 53.965518 
L 223.173818 53.932629 
L 226.420364 53.90247 
L 229.666909 53.874776 
L 232.913455 53.849316 
L 236.16 53.825889 
L 239.406545 53.804316 
L 242.653091 53.784441 
L 245.899636 53.766122 
L 249.146182 53.749234 
L 252.392727 53.733664 
L 255.639273 53.719311 
L 258.885818 53.706082 
L 262.132364 53.693892 
L 265.378909 53.682664 
L 268.625455 53.672327 
L 271.872 53.662816 
L 275.118545 53.654071 
L 278.365091 53.646036 
L 281.611636 53.63866 
L 284.858182 53.631893 
L 288.104727 53.625693 
L 291.351273 53.620016 
L 294.597818 53.614824 
L 297.844364 53.610082 
L 301.090909 53.605755 
L 304.337455 53.601812 
L 307.584 53.598223 
L 310.830545 53.594961 
L 314.077091 53.592001 
L 317.323636 53.589319 
L 320.570182 53.586892 
L 323.816727 53.584699 
L 327.063273 53.582722 
L 330.309818 53.580942 
L 333.556364 53.579342 
L 336.802909 53.577907 
L 340.049455 53.576623 
L 343.296 53.575476 
L 346.542545 53.574455 
L 349.789091 53.573546 
L 353.035636 53.57274 
L 356.282182 53.572027 
L 359.528727 53.571399 
L 362.775273 53.570846 
L 366.021818 53.570361 
L 369.268364 53.569938 
L 372.514909 53.56957 
L 375.761455 53.56925 
L 379.008 53.568975 
L 382.254545 53.568738 
L 385.501091 53.568536 
L 388.747636 53.568365 
L 391.994182 53.568221 
L 395.240727 53.5681 
L 398.487273 53.568 
" style="fill:none;stroke:#8c564b;stroke-linecap:square;stroke-width:1.5;"/>
   </g>
   <g id="line2d_29">
    <path clip-path="url(#p872919db31)" d="M 73.832727 295.488 
L 77.079273 251.732748 
L 80.325818 215.93098 
L 83.572364 186.634976 
L 86.818909 162.660565 
L 90.065455 143.039158 
L 93.312 126.978511 
L 96.558545 113.830626 
L 99.805091 103.065489 
L 103.051636 94.249597 
L 106.298182 87.028383 
L 109.544727 81.111846 
L 112.791273 76.262793 
L 116.037818 72.287222 
L 119.284364 69.026461 
L 122.530909 66.350727 
L 125.777455 64.15387 
L 129.024 62.349063 
L 132.270545 60.865287 
L 135.517091 59.644449 
L 138.763636 58.639026 
L 142.010182 57.81014 
L 145.256727 57.125986 
L 148.503273 56.560539 
L 151.749818 56.092501 
L 154.996364 55.704444 
L 158.242909 55.382102 
L 161.489455 55.113794 
L 164.736 54.889955 
L 167.982545 54.702751 
L 171.229091 54.54576 
L 174.475636 54.413723 
L 177.722182 54.302322 
L 180.968727 54.208016 
L 184.215273 54.1279 
L 187.461818 54.059585 
L 190.708364 54.001106 
L 193.954909 53.950849 
L 197.201455 53.907481 
L 200.448 53.869903 
L 203.694545 53.837209 
L 206.941091 53.808648 
L 210.187636 53.783597 
L 213.434182 53.76154 
L 216.680727 53.742047 
L 219.927273 53.724758 
L 223.173818 53.709372 
L 226.420364 53.695639 
L 229.666909 53.683344 
L 232.913455 53.672309 
L 236.16 53.662381 
L 239.406545 53.653431 
L 242.653091 53.645347 
L 245.899636 53.638033 
L 249.146182 53.631408 
L 252.392727 53.625399 
L 255.639273 53.619944 
L 258.885818 53.614988 
L 262.132364 53.610484 
L 265.378909 53.606388 
L 268.625455 53.602663 
L 271.872 53.599274 
L 275.118545 53.596193 
L 278.365091 53.593391 
L 281.611636 53.590843 
L 284.858182 53.588529 
L 288.104727 53.586427 
L 291.351273 53.584519 
L 294.597818 53.582789 
L 297.844364 53.581221 
L 301.090909 53.579801 
L 304.337455 53.578517 
L 307.584 53.577356 
L 310.830545 53.576309 
L 314.077091 53.575364 
L 317.323636 53.574514 
L 320.570182 53.573749 
L 323.816727 53.573062 
L 327.063273 53.572446 
L 330.309818 53.571895 
L 333.556364 53.571402 
L 336.802909 53.570962 
L 340.049455 53.57057 
L 343.296 53.570222 
L 346.542545 53.569913 
L 349.789091 53.56964 
L 353.035636 53.569398 
L 356.282182 53.569185 
L 359.528727 53.568998 
L 362.775273 53.568834 
L 366.021818 53.568691 
L 369.268364 53.568566 
L 372.514909 53.568458 
L 375.761455 53.568364 
L 379.008 53.568284 
L 382.254545 53.568215 
L 385.501091 53.568156 
L 388.747636 53.568106 
L 391.994182 53.568064 
L 395.240727 53.568029 
L 398.487273 53.568 
" style="fill:none;stroke:#e377c2;stroke-linecap:square;stroke-width:1.5;"/>
   </g>
   <g id="line2d_30">
    <path clip-path="url(#p872919db31)" d="M 73.832727 295.488 
L 77.079273 251.588728 
L 80.325818 215.670361 
L 83.572364 186.281194 
L 86.818909 162.233595 
L 90.065455 142.555973 
L 93.312 126.453485 
L 96.558545 113.27588 
L 99.805091 102.491202 
L 103.051636 93.664269 
L 106.298182 86.43907 
L 109.544727 80.524361 
L 112.791273 75.681884 
L 116.037818 71.716726 
L 119.284364 68.469432 
L 122.530909 65.809558 
L 125.777455 63.630389 
L 129.024 61.844621 
L 132.270545 60.380833 
L 135.517091 59.180594 
L 138.763636 58.196099 
L 142.010182 57.388237 
L 145.256727 56.725008 
L 148.503273 56.180231 
L 151.749818 55.732483 
L 154.996364 55.364232 
L 158.242909 55.061133 
L 161.489455 54.811445 
L 164.736 54.605558 
L 167.982545 54.435606 
L 171.229091 54.29515 
L 174.475636 54.178915 
L 177.722182 54.082584 
L 180.968727 54.002619 
L 184.215273 53.936121 
L 187.461818 53.880716 
L 190.708364 53.834455 
L 193.954909 53.795741 
L 197.201455 53.763265 
L 200.448 53.735949 
L 203.694545 53.71291 
L 206.941091 53.693422 
L 210.187636 53.676887 
L 213.434182 53.662814 
L 216.680727 53.650796 
L 219.927273 53.640499 
L 223.173818 53.631647 
L 226.420364 53.624011 
L 229.666909 53.617402 
L 232.913455 53.611663 
L 236.16 53.606663 
L 239.406545 53.602293 
L 242.653091 53.598462 
L 245.899636 53.595094 
L 249.146182 53.592124 
L 252.392727 53.5895 
L 255.639273 53.587176 
L 258.885818 53.585113 
L 262.132364 53.583277 
L 265.378909 53.581642 
L 268.625455 53.580183 
L 271.872 53.57888 
L 275.118545 53.577714 
L 278.365091 53.57667 
L 281.611636 53.575735 
L 284.858182 53.574896 
L 288.104727 53.574145 
L 291.351273 53.573471 
L 294.597818 53.572866 
L 297.844364 53.572324 
L 301.090909 53.571837 
L 304.337455 53.571401 
L 307.584 53.571011 
L 310.830545 53.570661 
L 314.077091 53.570348 
L 317.323636 53.570068 
L 320.570182 53.569818 
L 323.816727 53.569595 
L 327.063273 53.569396 
L 330.309818 53.569219 
L 333.556364 53.569061 
L 336.802909 53.568921 
L 340.049455 53.568797 
L 343.296 53.568687 
L 346.542545 53.56859 
L 349.789091 53.568505 
L 353.035636 53.56843 
L 356.282182 53.568364 
L 359.528727 53.568306 
L 362.775273 53.568255 
L 366.021818 53.568211 
L 369.268364 53.568173 
L 372.514909 53.568139 
L 375.761455 53.568111 
L 379.008 53.568086 
L 382.254545 53.568065 
L 385.501091 53.568047 
L 388.747636 53.568032 
L 391.994182 53.568019 
L 395.240727 53.568009 
L 398.487273 53.568 
" style="fill:none;stroke:#7f7f7f;stroke-linecap:square;stroke-width:1.5;"/>
   </g>
   <g id="line2d_31">
    <path clip-path="url(#p872919db31)" d="M 73.832727 295.488 
L 77.079273 251.533842 
L 80.325818 215.571058 
L 83.572364 186.146436 
L 86.818909 162.07103 
L 90.065455 142.372108 
L 93.312 126.253834 
L 96.558545 113.065097 
L 99.805091 102.273195 
L 103.051636 93.442303 
L 106.298182 86.215853 
L 109.544727 80.302123 
L 112.791273 75.462442 
L 116.037818 71.501544 
L 119.284364 68.259673 
L 122.530909 65.606128 
L 125.777455 63.433974 
L 129.024 61.655723 
L 132.270545 60.199797 
L 135.517091 59.007635 
L 138.763636 58.031322 
L 142.010182 57.231657 
L 145.256727 56.576566 
L 148.503273 56.039807 
L 151.749818 55.599907 
L 154.996364 55.239298 
L 158.242909 54.943604 
L 161.489455 54.701061 
L 164.736 54.502045 
L 167.982545 54.338676 
L 171.229091 54.20451 
L 174.475636 54.094269 
L 177.722182 54.003635 
L 180.968727 53.929074 
L 184.215273 53.867691 
L 187.461818 53.817118 
L 190.708364 53.775414 
L 193.954909 53.74099 
L 197.201455 53.712546 
L 200.448 53.689015 
L 203.694545 53.669524 
L 206.941091 53.653356 
L 210.187636 53.639925 
L 213.434182 53.628749 
L 216.680727 53.619433 
L 219.927273 53.611652 
L 223.173818 53.605141 
L 226.420364 53.599681 
L 229.666909 53.595092 
L 232.913455 53.591225 
L 236.16 53.58796 
L 239.406545 53.585195 
L 242.653091 53.582847 
L 245.899636 53.580849 
L 249.146182 53.579144 
L 252.392727 53.577684 
L 255.639273 53.576432 
L 258.885818 53.575354 
L 262.132364 53.574424 
L 265.378909 53.57362 
L 268.625455 53.572922 
L 271.872 53.572316 
L 275.118545 53.571788 
L 278.365091 53.571327 
L 281.611636 53.570924 
L 284.858182 53.570571 
L 288.104727 53.570261 
L 291.351273 53.569988 
L 294.597818 53.569749 
L 297.844364 53.569537 
L 301.090909 53.569351 
L 304.337455 53.569187 
L 307.584 53.569041 
L 310.830545 53.568913 
L 314.077091 53.5688 
L 317.323636 53.5687 
L 320.570182 53.568611 
L 323.816727 53.568533 
L 327.063273 53.568464 
L 330.309818 53.568403 
L 333.556364 53.568349 
L 336.802909 53.568302 
L 340.049455 53.56826 
L 343.296 53.568224 
L 346.542545 53.568191 
L 349.789091 53.568163 
L 353.035636 53.568138 
L 356.282182 53.568117 
L 359.528727 53.568098 
L 362.775273 53.568082 
L 366.021818 53.568067 
L 369.268364 53.568055 
L 372.514909 53.568044 
L 375.761455 53.568035 
L 379.008 53.568027 
L 382.254545 53.568021 
L 385.501091 53.568015 
L 388.747636 53.56801 
L 391.994182 53.568006 
L 395.240727 53.568003 
L 398.487273 53.568 
" style="fill:none;stroke:#bcbd22;stroke-linecap:square;stroke-width:1.5;"/>
   </g>
   <g id="line2d_32">
    <path clip-path="url(#p872919db31)" d="M 73.832727 295.488 
L 77.079273 251.513641 
L 80.325818 215.534514 
L 83.572364 186.096856 
L 86.818909 162.011241 
L 90.065455 142.304517 
L 93.312 126.180482 
L 96.558545 112.987708 
L 99.805091 102.193216 
L 103.051636 93.360943 
L 106.298182 86.134115 
L 109.544727 80.22083 
L 112.791273 75.382266 
L 116.037818 71.423024 
L 119.284364 68.183236 
L 122.530909 65.532104 
L 125.777455 63.362613 
L 129.024 61.587204 
L 132.270545 60.134243 
L 135.517091 58.945117 
L 138.763636 57.971872 
L 142.010182 57.175275 
L 145.256727 56.523222 
L 148.503273 55.989449 
L 151.749818 55.552467 
L 154.996364 55.194692 
L 158.242909 54.901738 
L 161.489455 54.661834 
L 164.736 54.465347 
L 167.982545 54.304397 
L 171.229091 54.172536 
L 174.475636 54.064486 
L 177.722182 53.975929 
L 180.968727 53.903333 
L 184.215273 53.843805 
L 187.461818 53.794978 
L 190.708364 53.754917 
L 193.954909 53.722036 
L 197.201455 53.695037 
L 200.448 53.672859 
L 203.694545 53.654631 
L 206.941091 53.639643 
L 210.187636 53.62731 
L 213.434182 53.617157 
L 216.680727 53.608791 
L 219.927273 53.601893 
L 223.173818 53.5962 
L 226.420364 53.591498 
L 229.666909 53.58761 
L 232.913455 53.584391 
L 236.16 53.581724 
L 239.406545 53.57951 
L 242.653091 53.577671 
L 245.899636 53.57614 
L 249.146182 53.574865 
L 252.392727 53.5738 
L 255.639273 53.57291 
L 258.885818 53.572164 
L 262.132364 53.571538 
L 265.378909 53.571011 
L 268.625455 53.570568 
L 271.872 53.570193 
L 275.118545 53.569877 
L 278.365091 53.569608 
L 281.611636 53.56938 
L 284.858182 53.569186 
L 288.104727 53.56902 
L 291.351273 53.568879 
L 294.597818 53.568757 
L 297.844364 53.568653 
L 301.090909 53.568564 
L 304.337455 53.568487 
L 307.584 53.568421 
L 310.830545 53.568363 
L 314.077091 53.568314 
L 317.323636 53.568271 
L 320.570182 53.568234 
L 323.816727 53.568202 
L 327.063273 53.568174 
L 330.309818 53.568149 
L 333.556364 53.568128 
L 336.802909 53.56811 
L 340.049455 53.568094 
L 343.296 53.56808 
L 346.542545 53.568068 
L 349.789091 53.568058 
L 353.035636 53.568049 
L 356.282182 53.568041 
L 359.528727 53.568034 
L 362.775273 53.568028 
L 366.021818 53.568023 
L 369.268364 53.568019 
L 372.514909 53.568015 
L 375.761455 53.568012 
L 379.008 53.568009 
L 382.254545 53.568007 
L 385.501091 53.568005 
L 388.747636 53.568003 
L 391.994182 53.568002 
L 395.240727 53.568001 
L 398.487273 53.568 
" style="fill:none;stroke:#17becf;stroke-linecap:square;stroke-width:1.5;"/>
   </g>
   <g id="line2d_33">
    <path clip-path="url(#p872919db31)" d="M 73.832727 295.488 
L 77.079273 251.506409 
L 80.325818 215.521433 
L 83.572364 186.079113 
L 86.818909 161.989851 
L 90.065455 142.280344 
L 93.312 126.15426 
L 96.558545 112.960057 
L 99.805091 102.164657 
L 103.051636 93.33191 
L 106.298182 86.104969 
L 109.544727 80.191867 
L 112.791273 75.353725 
L 116.037818 71.3951 
L 119.284364 68.156081 
L 122.530909 65.505835 
L 125.777455 63.337318 
L 129.024 61.562947 
L 132.270545 60.111065 
L 135.517091 58.923043 
L 138.763636 57.950912 
L 142.010182 57.155425 
L 145.256727 56.50447 
L 148.503273 55.971776 
L 151.749818 55.535845 
L 154.996364 55.179089 
L 158.242909 54.887119 
L 161.489455 54.648159 
L 164.736 54.452578 
L 167.982545 54.292492 
L 171.229091 54.161452 
L 174.475636 54.054181 
L 177.722182 53.966362 
L 180.968727 53.894462 
L 184.215273 53.835589 
L 187.461818 53.787379 
L 190.708364 53.747897 
L 193.954909 53.715557 
L 197.201455 53.689065 
L 200.448 53.66736 
L 203.694545 53.649573 
L 206.941091 53.634995 
L 210.187636 53.623044 
L 213.434182 53.613245 
L 216.680727 53.605208 
L 219.927273 53.598614 
L 223.173818 53.593202 
L 226.420364 53.58876 
L 229.666909 53.585112 
L 232.913455 53.582114 
L 236.16 53.57965 
L 239.406545 53.577624 
L 242.653091 53.575957 
L 245.899636 53.574585 
L 249.146182 53.573454 
L 252.392727 53.572522 
L 255.639273 53.571753 
L 258.885818 53.571118 
L 262.132364 53.570594 
L 265.378909 53.57016 
L 268.625455 53.569801 
L 271.872 53.569503 
L 275.118545 53.569256 
L 278.365091 53.569051 
L 281.611636 53.568881 
L 284.858182 53.568739 
L 288.104727 53.56862 
L 291.351273 53.568522 
L 294.597818 53.568439 
L 297.844364 53.56837 
L 301.090909 53.568312 
L 304.337455 53.568263 
L 307.584 53.568223 
L 310.830545 53.568188 
L 314.077091 53.568159 
L 317.323636 53.568135 
L 320.570182 53.568114 
L 323.816727 53.568096 
L 327.063273 53.568082 
L 330.309818 53.568069 
L 333.556364 53.568058 
L 336.802909 53.568049 
L 340.049455 53.568042 
L 343.296 53.568035 
L 346.542545 53.568029 
L 349.789091 53.568025 
L 353.035636 53.568021 
L 356.282182 53.568017 
L 359.528727 53.568014 
L 362.775273 53.568012 
L 366.021818 53.568009 
L 369.268364 53.568008 
L 372.514909 53.568006 
L 375.761455 53.568005 
L 379.008 53.568004 
L 382.254545 53.568003 
L 385.501091 53.568002 
L 388.747636 53.568001 
L 391.994182 53.568001 
L 395.240727 53.568 
L 398.487273 53.568 
" style="fill:none;stroke:#1f77b4;stroke-linecap:square;stroke-width:1.5;"/>
   </g>
   <g id="line2d_34">
    <path clip-path="url(#p872919db31)" d="M 73.832727 295.488 
L 77.079273 251.503873 
L 80.325818 215.516847 
L 83.572364 186.072893 
L 86.818909 161.982354 
L 90.065455 142.271875 
L 93.312 126.145076 
L 96.558545 112.950375 
L 99.805091 102.154662 
L 103.051636 93.321754 
L 106.298182 86.094779 
L 109.544727 80.181746 
L 112.791273 75.34376 
L 116.037818 71.385356 
L 119.284364 68.146613 
L 122.530909 65.496684 
L 125.777455 63.328513 
L 129.024 61.554511 
L 132.270545 60.103012 
L 135.517091 58.915381 
L 138.763636 57.943644 
L 142.010182 57.14855 
L 145.256727 56.497983 
L 148.503273 55.965668 
L 151.749818 55.530107 
L 154.996364 55.17371 
L 158.242909 54.882085 
L 161.489455 54.643458 
L 164.736 54.448193 
L 167.982545 54.288409 
L 171.229091 54.157656 
L 174.475636 54.050658 
L 177.722182 53.963095 
L 180.968727 53.891437 
L 184.215273 53.832792 
L 187.461818 53.784796 
L 190.708364 53.745514 
L 193.954909 53.713362 
L 197.201455 53.687044 
L 200.448 53.665502 
L 203.694545 53.647867 
L 206.941091 53.63343 
L 210.187636 53.62161 
L 213.434182 53.611931 
L 216.680727 53.604006 
L 219.927273 53.597516 
L 223.173818 53.592201 
L 226.420364 53.587847 
L 229.666909 53.58428 
L 232.913455 53.581357 
L 236.16 53.578962 
L 239.406545 53.576999 
L 242.653091 53.57539 
L 245.899636 53.574071 
L 249.146182 53.572989 
L 252.392727 53.572101 
L 255.639273 53.571373 
L 258.885818 53.570775 
L 262.132364 53.570284 
L 265.378909 53.569881 
L 268.625455 53.56955 
L 271.872 53.569278 
L 275.118545 53.569054 
L 278.365091 53.56887 
L 281.611636 53.568718 
L 284.858182 53.568594 
L 288.104727 53.568491 
L 291.351273 53.568406 
L 294.597818 53.568336 
L 297.844364 53.568278 
L 301.090909 53.568231 
L 304.337455 53.568191 
L 307.584 53.568159 
L 310.830545 53.568132 
L 314.077091 53.568109 
L 317.323636 53.568091 
L 320.570182 53.568076 
L 323.816727 53.568063 
L 327.063273 53.568052 
L 330.309818 53.568043 
L 333.556364 53.568036 
L 336.802909 53.56803 
L 340.049455 53.568025 
L 343.296 53.568021 
L 346.542545 53.568017 
L 349.789091 53.568014 
L 353.035636 53.568012 
L 356.282182 53.568009 
L 359.528727 53.568008 
L 362.775273 53.568006 
L 366.021818 53.568005 
L 369.268364 53.568004 
L 372.514909 53.568003 
L 375.761455 53.568003 
L 379.008 53.568002 
L 382.254545 53.568001 
L 385.501091 53.568001 
L 388.747636 53.568001 
L 391.994182 53.568 
L 395.240727 53.568 
L 398.487273 53.568 
" style="fill:none;stroke:#ff7f0e;stroke-linecap:square;stroke-width:1.5;"/>
   </g>
   <g id="line2d_35">
    <path clip-path="url(#p872919db31)" d="M 73.832727 295.488 
L 77.079273 251.502997 
L 80.325818 215.515263 
L 83.572364 186.070746 
L 86.818909 161.979766 
L 90.065455 142.268951 
L 93.312 126.141906 
L 96.558545 112.947035 
L 99.805091 102.151214 
L 103.051636 93.318253 
L 106.298182 86.091267 
L 109.544727 80.17826 
L 112.791273 75.340328 
L 116.037818 71.382003 
L 119.284364 68.143356 
L 122.530909 65.493538 
L 125.777455 63.325489 
L 129.024 61.551615 
L 132.270545 60.10025 
L 135.517091 58.912755 
L 138.763636 57.941154 
L 142.010182 57.146196 
L 145.256727 56.495764 
L 148.503273 55.963581 
L 151.749818 55.528149 
L 154.996364 55.171875 
L 158.242909 54.88037 
L 161.489455 54.641857 
L 164.736 54.446702 
L 167.982545 54.287022 
L 171.229091 54.156368 
L 174.475636 54.049463 
L 177.722182 53.961989 
L 180.968727 53.890414 
L 184.215273 53.831847 
L 187.461818 53.783924 
L 190.708364 53.74471 
L 193.954909 53.712622 
L 197.201455 53.686364 
L 200.448 53.664877 
L 203.694545 53.647294 
L 206.941091 53.632905 
L 210.187636 53.621129 
L 213.434182 53.611492 
L 216.680727 53.603605 
L 219.927273 53.59715 
L 223.173818 53.591867 
L 226.420364 53.587543 
L 229.666909 53.584003 
L 232.913455 53.581106 
L 236.16 53.578734 
L 239.406545 53.576792 
L 242.653091 53.575202 
L 245.899636 53.573901 
L 249.146182 53.572835 
L 252.392727 53.571962 
L 255.639273 53.571247 
L 258.885818 53.570662 
L 262.132364 53.570182 
L 265.378909 53.56979 
L 268.625455 53.569468 
L 271.872 53.569204 
L 275.118545 53.568988 
L 278.365091 53.568811 
L 281.611636 53.568665 
L 284.858182 53.568546 
L 288.104727 53.568448 
L 291.351273 53.568368 
L 294.597818 53.568303 
L 297.844364 53.568249 
L 301.090909 53.568204 
L 304.337455 53.568168 
L 307.584 53.568138 
L 310.830545 53.568114 
L 314.077091 53.568093 
L 317.323636 53.568077 
L 320.570182 53.568063 
L 323.816727 53.568052 
L 327.063273 53.568043 
L 330.309818 53.568035 
L 333.556364 53.568029 
L 336.802909 53.568024 
L 340.049455 53.568019 
L 343.296 53.568016 
L 346.542545 53.568013 
L 349.789091 53.568011 
L 353.035636 53.568009 
L 356.282182 53.568007 
L 359.528727 53.568006 
L 362.775273 53.568005 
L 366.021818 53.568004 
L 369.268364 53.568003 
L 372.514909 53.568002 
L 375.761455 53.568002 
L 379.008 53.568001 
L 382.254545 53.568001 
L 385.501091 53.568001 
L 388.747636 53.568 
L 391.994182 53.568 
L 395.240727 53.568 
L 398.487273 53.568 
" style="fill:none;stroke:#2ca02c;stroke-linecap:square;stroke-width:1.5;"/>
   </g>
   <g id="patch_3">
    <path d="M 57.6 307.584 
L 57.6 41.472 
" style="fill:none;stroke:#000000;stroke-linecap:square;stroke-linejoin:miter;stroke-width:0.8;"/>
   </g>
   <g id="patch_4">
    <path d="M 414.72 307.584 
L 414.72 41.472 
" style="fill:none;stroke:#000000;stroke-linecap:square;stroke-linejoin:miter;stroke-width:0.8;"/>
   </g>
   <g id="patch_5">
    <path d="M 57.6 307.584 
L 414.72 307.584 
" style="fill:none;stroke:#000000;stroke-linecap:square;stroke-linejoin:miter;stroke-width:0.8;"/>
   </g>
   <g id="patch_6">
    <path d="M 57.6 41.472 
L 414.72 41.472 
" style="fill:none;stroke:#000000;stroke-linecap:square;stroke-linejoin:miter;stroke-width:0.8;"/>
   </g>
   <g id="patch_7">
    <path d="M 256.958171 286.328037 
Q 247.458592 289.258868 237.959012 292.189699 
L 238.622335 294.3397 
Q 232.521349 294.91385 226.420364 295.488 
Q 231.784324 292.52496 237.148284 289.56192 
L 237.811607 291.711921 
Q 247.311187 288.78109 256.810766 285.850259 
L 256.958171 286.328037 
z
" style="stroke:#000000;stroke-linecap:round;"/>
   </g>
   <g id="text_15">
    <!-- sweep 1 -->
    <defs>
     <path d="M 44.28125 53.078125 
L 44.28125 44.578125 
Q 40.484375 46.53125 36.375 47.5 
Q 32.28125 48.484375 27.875 48.484375 
Q 21.1875 48.484375 17.84375 46.4375 
Q 14.5 44.390625 14.5 40.28125 
Q 14.5 37.15625 16.890625 35.375 
Q 19.28125 33.59375 26.515625 31.984375 
L 29.59375 31.296875 
Q 39.15625 29.25 43.1875 25.515625 
Q 47.21875 21.78125 47.21875 15.09375 
Q 47.21875 7.46875 41.1875 3.015625 
Q 35.15625 -1.421875 24.609375 -1.421875 
Q 20.21875 -1.421875 15.453125 -0.5625 
Q 10.6875 0.296875 5.421875 2 
L 5.421875 11.28125 
Q 10.40625 8.6875 15.234375 7.390625 
Q 20.0625 6.109375 24.8125 6.109375 
Q 31.15625 6.109375 34.5625 8.28125 
Q 37.984375 10.453125 37.984375 14.40625 
Q 37.984375 18.0625 35.515625 20.015625 
Q 33.0625 21.96875 24.703125 23.78125 
L 21.578125 24.515625 
Q 13.234375 26.265625 9.515625 29.90625 
Q 5.8125 33.546875 5.8125 39.890625 
Q 5.8125 47.609375 11.28125 51.796875 
Q 16.75 56 26.8125 56 
Q 31.78125 56 36.171875 55.265625 
Q 40.578125 54.546875 44.28125 53.078125 
z
" id="DejaVuSans-73"/>
     <path d="M 4.203125 54.6875 
L 13.1875 54.6875 
L 24.421875 12.015625 
L 35.59375 54.6875 
L 46.1875 54.6875 
L 57.421875 12.015625 
L 68.609375 54.6875 
L 77.59375 54.6875 
L 63.28125 0 
L 52.6875 0 
L 40.921875 44.828125 
L 29.109375 0 
L 18.5 0 
z
" id="DejaVuSans-77"/>
    </defs>
    <g transform="translate(258.885818 283.392)scale(0.1 -0.1)">
     <use xlink:href="#DejaVuSans-73"/>
     <use x="52.099609" xlink:href="#DejaVuSans-77"/>
     <use x="133.886719" xlink:href="#DejaVuSans-65"/>
     <use x="195.410156" xlink:href="#DejaVuSans-65"/>
     <use x="256.933594" xlink:href="#DejaVuSans-70"/>
     <use x="320.410156" xlink:href="#DejaVuSans-20"/>
     <use x="352.197266" xlink:href="#DejaVuSans-31"/>
    </g>
   </g>
   <g id="patch_8">
    <path d="M 256.958171 87.706642 
Q 247.458592 90.637473 237.959012 93.568304 
L 238.622335 95.718305 
Q 232.521349 96.292455 226.420364 96.866605 
Q 231.784324 93.903565 237.148284 90.940525 
L 237.811607 93.090526 
Q 247.311187 90.159695 256.810766 87.228864 
L 256.958171 87.706642 
z
" style="stroke:#000000;stroke-linecap:round;"/>
   </g>
   <g id="text_16">
    <!-- sweep 100 -->
    <g transform="translate(258.885818 84.770605)scale(0.1 -0.1)">
     <use xlink:href="#DejaVuSans-73"/>
     <use x="52.099609" xlink:href="#DejaVuSans-77"/>
     <use x="133.886719" xlink:href="#DejaVuSans-65"/>
     <use x="195.410156" xlink:href="#DejaVuSans-65"/>
     <use x="256.933594" xlink:href="#DejaVuSans-70"/>
     <use x="320.410156" xlink:href="#DejaVuSans-20"/>
     <use x="352.197266" xlink:href="#DejaVuSans-31"/>
     <use x="415.820312" xlink:href="#DejaVuSans-30"/>
     <use x="479.443359" xlink:href="#DejaVuSans-30"/>
    </g>
   </g>
   <g id="patch_9">
    <path d="M 256.958171 66.5852 
Q 247.458592 69.51603 237.959012 72.446861 
L 238.622335 74.596862 
Q 232.521349 75.171012 226.420364 75.745162 
Q 231.784324 72.782123 237.148284 69.819083 
L 237.811607 71.969083 
Q 247.311187 69.038253 256.810766 66.107422 
L 256.958171 66.5852 
z
" style="stroke:#000000;stroke-linecap:round;"/>
   </g>
   <g id="text_17">
    <!-- sweep 200 -->
    <g transform="translate(258.885818 63.649162)scale(0.1 -0.1)">
     <use xlink:href="#DejaVuSans-73"/>
     <use x="52.099609" xlink:href="#DejaVuSans-77"/>
     <use x="133.886719" xlink:href="#DejaVuSans-65"/>
     <use x="195.410156" xlink:href="#DejaVuSans-65"/>
     <use x="256.933594" xlink:href="#DejaVuSans-70"/>
     <use x="320.410156" xlink:href="#DejaVuSans-20"/>
     <use x="352.197266" xlink:href="#DejaVuSans-32"/>
     <use x="415.820312" xlink:href="#DejaVuSans-30"/>
     <use x="479.443359" xlink:href="#DejaVuSans-30"/>
    </g>
   </g>
   <g id="patch_10">
    <path d="M 256.958171 44.428797 
Q 247.458592 47.359628 237.959012 50.290459 
L 238.622335 52.44046 
Q 232.521349 53.01461 226.420364 53.58876 
Q 231.784324 50.62572 237.148284 47.66268 
L 237.811607 49.812681 
Q 247.311187 46.88185 256.810766 43.951019 
L 256.958171 44.428797 
z
" style="stroke:#000000;stroke-linecap:round;"/>
   </g>
   <g id="text_18">
    <!-- sweep 2000 -->
    <g transform="translate(258.885818 41.49276)scale(0.1 -0.1)">
     <use xlink:href="#DejaVuSans-73"/>
     <use x="52.099609" xlink:href="#DejaVuSans-77"/>
     <use x="133.886719" xlink:href="#DejaVuSans-65"/>
     <use x="195.410156" xlink:href="#DejaVuSans-65"/>
     <use x="256.933594" xlink:href="#DejaVuSans-70"/>
     <use x="320.410156" xlink:href="#DejaVuSans-20"/>
     <use x="352.197266" xlink:href="#DejaVuSans-32"/>
     <use x="415.820312" xlink:href="#DejaVuSans-30"/>
     <use x="479.443359" xlink:href="#DejaVuSans-30"/>
     <use x="543.066406" xlink:href="#DejaVuSans-30"/>
    </g>
   </g>
  </g>
 </g>
 <defs>
  <clipPath id="p872919db31">
   <rect height="266.112" width="357.12" x="57.6" y="41.472"/>
  </clipPath>
 </defs>
</svg>
